<svg fill="none" height="33" viewBox="0 0 136 33" width="136" xmlns="http://www.w3.org/2000/svg"><g fill="#232328"><path d="m24.9767 21.3413v6.5565h-2.5545v-.8646c-.0049-3.4264-.0245-6.8528 0-10.2792.0196-2.9195 1.5136-5.1262 3.9897-5.9981 2.797-.98213 6.0299-.1959 7.7223 1.881 1.6434 2.0181 1.8688 5.2902.5193 7.6022-1.7855 3.0591-6.1916 3.8771-8.9494 1.6606-.1763-.1421-.3576-.2768-.7274-.5633zm7.9501-4.6314c-.0123-2.3145-1.7389-4.002-4.051-3.9579-2.2581.0416-3.8868 1.7095-3.9015 3.9971-.0147 2.3071 1.734 4.0656 4.0044 4.0264 2.339-.0416 3.9603-1.712 3.9505-4.0656z"/><path d="m11.7629 19.4068c1.521-2.9146 3.0566-5.8242 4.5996-8.7608h-2.9253l-.7607 1.4548c-1.1095 2.0892-2.17 4.2028-3.31133 6.2724-.87925 1.5944-2.47122 2.219-4.15871 1.7438-1.48176-.4163-2.5643-1.8001-2.61329-3.3358-.05143-1.5919.97478-3.0443 2.50062-3.539 1.61402-.5242 3.30151.1004 4.25669 1.5723.16654.2572.32329.5168.55107.8842l1.34675-2.4854c-.1194-.2613-.5227-.765-.9255-1.1639-1.87607-1.6556-4.65835-2.05732-6.96793-.8842-2.2655 1.1487-3.619898 3.6787-3.3113005 6.1842.3232925 2.6256 2.2018205 4.7294 4.7367305 5.305 2.87779.6539 5.6135-.6246 6.9826-3.2476z"/><path d="m37.4177 5.50781h-.0025-.0636v17.34519h2.5667v-6.6716c.0955-2.2116 1.5357-3.522 3.6273-3.4264 2.0156.093 3.2231 1.347 3.277 3.5121.0465 1.9153.0343 3.8354.0049 5.7507v.8352h2.6157v-.7617c-.0098-2.2827.0735-4.5751-.1298-6.8431-.2449-2.721-2.0255-4.4624-4.5775-4.8371-1.7928-.2645-3.3603.2229-4.8764 1.712v-6.61529z"/><path d="m112.201 13.9622c1.57-1.5185 4.587-1.5136 5.775.2816.305.3673.535.8764.612 1.085h2.57c-.502-3.179-3.417-5.109-7-4.7661-3.473.3306-5.788 3.0272-5.665 6.6005.117 3.4363 2.66 5.8707 6.292 6.0226 3.221.1347 6.032-1.9545 6.319-4.7392h-2.516c-.107.2135-.382.7161-.631 1.0189-1.24 1.7928-4.191 1.7781-5.771.2424-1.521-1.4768-1.513-4.2689.015-5.7457z"/><path d="m72.4663 10.5299c-3.637-.1274-5.9736 1.6385-6.2797 5.0649-.0112.1256-.0213.2513-.0304.3772v6.8454h2.4992.0245v-6.5319c.0783-2.1088 1.2882-3.326 3.2549-3.3971 2.0524-.0734 3.3677 1.0605 3.544 3.2134v6.6838h.0539 2.5104v-6.8136c-.1641-3.3481-2.2606-5.327-5.5768-5.4421z"/><path d="m101.087 10.5299c-3.6366-.1274-5.9732 1.6385-6.2793 5.0649-.0112.1256-.0213.2513-.0304.3772v6.8454h2.4992.0245v-6.5319c.0783-2.1088 1.2882-3.326 3.255-3.3971 2.052-.0734 3.368 1.0605 3.544 3.2134v6.6838h.054 2.51v-6.8136c-.164-3.3481-2.26-5.327-5.577-5.4421z"/><path d="m20.5056 22.776h-2.3806v-17.24475h2.3806z"/><g clip-rule="evenodd" fill-rule="evenodd"><path d="m92.934 16.9334c.0686-3.6909-2.6965-6.3973-6.5442-6.4022l-.0025.0025c-3.7987-.0049-6.4879 2.5986-6.4928 6.292-.0049 3.6909 2.6843 6.3458 6.4463 6.3678 3.7521.0196 6.5246-2.6108 6.5932-6.2601zm-10.4774-.3442c-.0051.09-.0077.1811-.0076.2732.0032 1.5009.7019 2.7177 1.8297 3.3822.5933.3502 1.3052.5474 2.0966.5525 2.2998.0147 3.9113-1.5822 3.9309-3.8991.0016-.1885-.0073-.3726-.0263-.5518-.2141-2.03-1.7157-3.4249-3.8069-3.4564-1.4537-.0214-2.6613.6232-3.3631 1.6777-.3786.5681-.61 1.2554-.6533 2.0217z"/><path d="m125.86 17.7998c.397 3.1448 4.521 3.7473 6.157 2.2484.211-.1936.538-.5207.704-.6931h2.683c-.788 2.8263-4.252 4.4452-7.563 3.6394-3.456-.84-5.398-4.0117-4.651-7.5924.718-3.4313 4.036-5.45682 7.796-4.7564 3.309.6172 5.467 3.6763 4.933 7.1541zm.171-2.3312h7.137.003c-.571-1.7732-1.972-2.6671-3.873-2.5618-1.758.0979-2.934.9992-3.267 2.5618z"/><path d="m61.8316 21.0456c-1.6067 1.8369-3.5073 2.3978-5.7017 1.9569-3.2746-.6588-5.0968-3.2476-4.8592-6.8724.2057-3.1423 2.6941-5.5499 5.9417-5.7458 4.2616-.2572 7.0904 2.4051 7.1026 6.6838v4.6486 1.1242h-2.4834v-1.7929zm-8.0347-4.2982c.0049 2.3634 1.6189 3.9505 4.0166 3.9456h-.0024.0024c2.3108-.006 3.9237-1.5903 3.9506-3.8819.0294-2.3341-1.6263-4.0338-3.9481-4.0608-2.2851-.0269-4.0216 1.6997-4.0191 3.9971z"/></g><path d="m13.6801 17.6953-1.4301 2.6558 1.4301 2.426h2.7579z"/></g></svg>