<svg fill="none" height="41" viewBox="0 0 70 41" width="70" xmlns="http://www.w3.org/2000/svg"><path clip-rule="evenodd" d="m27.5322 21.8515 2.8146-.2273-1.4202-3.6875zm9.1218-6.2044c.0921.0849.1863.1966.2827.3354.0964.139.1961.2838.2989.4346l3.6693 5.1337v-5.4802c0-.356.0781-.6295.2345-.8203.0041-.0049.0087-.0093.0129-.0141l-4.5219.3912c.0077.0067.016.0128.0236.0197zm-.0236-.0197c-.0051-.0043-.0082-.007-.0106-.0091.0044.0038.0106.0091.0106.0091zm-11.2469-.5131.9975-.0884c.3158-.028.5284-.2475.5284-.5456v-5.3238c0-.24923.1004-.49018.2918-.70756.1924-.20637.4312-.32321.7104-.34798l1.3412-.11877c.2686-.02377.4992.05348.6926.23781.1941.17426.2916.39057.2916.64174v5.32376c0 .2981.2132.4799.5291.4519l1.0142-.0898c.0502-.0045.0988-.0199.1448-.0438.3022-.1578.3661-.3587.3661-.5002v-5.32386c0-.25023.1003-.49112.2922-.70763.1924-.20644.4312-.32321.7101-.34791l1.3408-.11877c.2712-.02404.5038.05314.7103.23627.1942.17426.292.39051.292.64167v5.32383c0 .298.2127.4799.5286.4519l.9968-.0882c.3158-.0281.5283-.2476.5283-.5456v-5.32386c0-.79269-.3094-1.41853-.9151-1.85751-.586-.44171-1.3069-.62718-2.141-.55327l-1.3407.11877c-.7906.07004-1.4711.34818-2.0293.82801-.5556-.38115-1.231-.53918-2.0114-.47002l-1.3412.11884c-.8267.07318-1.5513.38563-2.1581.9341-.5872.54473-.8979 1.24274-.8979 2.01814v5.3238c-.0001.2981.2122.4799.5279.452zm26.9011-3.1253c.5852.4397 1.3052.6262 2.1403.5522 1.1568-.1024 2.033-.2901 2.684-.5727.2251-.1003.3546-.2855.3546-.5086v-.643c.0007-.4206-.3577-.519-.6113-.4343-.6136.1987-1.4069.3391-2.4273.4294-.2788.0248-.5177-.0495-.7103-.223-.1932-.1744-.2916-.3943-.2916-.65617v-3.11113c0-.26065.0984-.49913.2913-.70657.1936-.2075.4324-.32433.7107-.34897 1.019-.09027 1.8351-.09033 2.4234-.00094.2895.04547.6152-.12484.6152-.54205v-.64327c0-.21144-.1157-.37134-.3399-.44726-.6466-.16757-1.5296-.19915-2.6987-.09553-.8344.0739-1.5608.39364-2.1578.94938-.5872.54446-.898 1.24288-.898 2.01714v3.11117c-.0001.787.3076 1.4168.9154 1.8742zm12.8105-8.15432c-.5864-.44165-1.3068-.62712-2.1411-.55328-1.0447.09254-1.8318.22647-2.352.40279-.3712.13867-.4111.40993-.4111.51983v.67258c0 .13045.0353.23801.104.3196.088.10328.2196.15255.3709.13913.0251-.0022.0859-.01268.1104-.01989.403-.12018 1.1358-.22694 2.1779-.31927.2686-.02377.4995.05355.6929.23781.1945.17419.292.39051.292.64167v.44485l-2.3257.20603c-.8359.07405-1.5615.39278-2.1585.94845-.5954.55361-.8976 1.22732-.8976 2.00286 0 .78576.3079 1.41626.9152 1.87436.5857.4395 1.3058.626 2.1409.5521l3.8685-.3427c.3009-.0266.5112-.2509.5112-.5441v-5.32385c0-.77426-.3107-1.41753-.8979-1.85897zm-1.1561 6.13434-2.3258.20608c-.2789.0247-.5175-.0497-.71-.22317-.194-.17432-.2923-.39418-.2923-.65609 0-.25137.0983-.48511.2923-.69241.1925-.20644.4311-.32327.71-.34798l2.3258-.2061zm-16.0105 6.09998-1.2595.1017v6.2533l1.4458-.1167c.317-.0257.5655-.0541.7455-.0854.1799-.0313.3662-.0882.559-.1709.1928-.0825.3598-.1902.5013-.3232.6383-.5796.9575-1.5145.9575-2.8049 0-.9092-.1405-1.5787-.4209-2.0086-.2807-.4298-.6266-.6898-1.0379-.7803-.4111-.0903-.9083-.1121-1.4908-.065zm-26.8107-10.47723 1.6679-.14781c.3159-.02804.5284-.2473.5284-.54553v-.74803c0-.24008-.1636-.46781-.5284-.43543l-1.6679.14775c-.3648.03231-.528.28902-.528.5291v.74803c0 .2983.2121.4799.528.45192zm17.597.47676c.1186-.06356.2166-.15015.2957-.24843l2.0174 2.03337-1.2033.39825c-.0383-.11417-.1073-.21699-.209-.29357-.2977-.22419-.745-.15275-1.0015.16017-.2557.31286-.2229.74823.0743.97255.2969.224.7456.15162 1.0006-.16097.0705-.08566.1171-.18033.1439-.27834l1.2072.55001c-.0001.02343-.0036.04633-.0036.0697 0 2.52793 2.0952 4.39163 4.6798 4.16263 2.5848-.229 4.6803-2.464 4.6803-4.99191 0-2.52788-2.0955-4.39146-4.6803-4.16246-.9687.08585-1.8689.45359-2.6153 1.01314l-1.0196-.69101c.0752-.11517.1238-.24756.131-.3891.0199-.40879-.3016-.72719-.7189-.71083-.4162.01789-.7706.36419-.7909.77386-.0196.40873.3017.72712.7185.7093.1139-.00428.2222-.03525.3215-.08372l.2229 1.36919-2.757-.91533c.0183-.15022-.002-.30338-.07-.44245-.1989-.40572-.711-.54593-1.144-.31359-.4327.23234-.6223.75043-.4233 1.15609.1983.40572.7117.54646 1.1436.31345zm8.0404 4.34817c.3432-.0303.6203.218.6203.552 0 .3355-.2771.632-.6203.6624s-.6204-.217-.6204-.5524c0-.3342.2772-.6315.6204-.662zm-2.1584.1913c.3434-.0304.621.2178.621.5519 0 .3354-.2775.6319-.621.6624-.3432.0304-.6203-.217-.6203-.5524 0-.3341.2771-.6316.6203-.6619zm4.7496 3.9172c-.0159-.0005-.0229-.0008-.0251-.0009.0034.0002.0149.0006.0251.0009zm-3.8514.3066c-.0381.0117-.0751.0241-.1101.038l.1101-.0095zm3.8671-.3061c-.0045-.0002-.0068-.0002-.0105-.0004.0058.0002.0105.0004.0105.0004zm12.0741 6.4988c-.0038.0092-.0081.0193-.0129.0305.0026-.0062.0074-.0176.0129-.0305zm-1.5166 1.5926c-.5655.2971-1.236.4769-2.0113.5395-.9297.0751-1.6965-.0348-2.3006-.3296-.4284-.2126-.7766-.5144-1.0443-.9055s-.4016-.7815-.4016-1.1711c0-.2263.0804-.4265.2409-.6008.1606-.1743.3652-.2715.6137-.2916.2014-.0162.3716.0329.5109.1473.1391.1145.258.2914.3567.5305.1197.2837.2494.5184.3886.704.1393.1858.3352.3323.588.4396.2527.1074.5848.1444.9961.1112.5655-.0457 1.0249-.2116 1.3783-.4978.3536-.2862.5302-.622.5302-1.0075 0-.3058-.0953-.5463-.2859-.7216-.1907-.1753-.437-.301-.739-.3771-.3021-.0762-.7059-.1504-1.2113-.2227-.677-.1003-1.2435-.2358-1.6998-.4064-.4562-.1705-.8183-.4241-1.0859-.7607-.2679-.3367-.4017-.7709-.4017-1.3031 0-.5069.1413-.9687.4242-1.3854.2827-.4166.6917-.7524 1.2273-1.0073.15-.0713.3083-.1342.4731-.1901l-7.1043.6148c.2601.0082.5004.0307.7193.0685.4626.0799.8825.266 1.2594.5582.981.742 1.4715 1.9509 1.4715 3.6268 0 .553-.0493 1.0619-.1477 1.5265-.0986.4647-.2506.8886-.4562 1.2718-.2058.3832-.4692.7324-.7905 1.0474-.2529.2426-.5291.4429-.8289.6012-.3.1583-.6224.2786-.9672.3608-.3449.0824-.7337.141-1.1663.176l-2.487.2008c-.347.0281-.6084-.0021-.7839-.0906-.1757-.0884-.2903-.2238-.3438-.4059-.0537-.182-.0804-.4219-.0804-.7194v-6.7561c0-.4022.0922-.7008.2764-.8958.0892-.0945.2057-.1695.3481-.226l-2.9837.2582c.0066.0064.0138.0121.0203.0187.1584.1654.2376.4261.2376.7821v7.2463c0 .8086-.3427 1.2406-1.0281 1.296-.1714.0138-.3256.0021-.4626-.0349-.1372-.0372-.2657-.1032-.3856-.1983-.12-.095-.2314-.2085-.3341-.3407-.1029-.132-.2057-.2672-.3085-.4056l-3.5793-5.078v5.3986c0 .3519-.0836.6247-.2506.8183-.1671.1936-.3814.3011-.6426.3222-.2699.0218-.4864-.0519-.649-.2211-.1629-.1691-.2442-.4274-.2442-.7752v-7.1081c0-.3016.0342-.541.1028-.7185.0583-.14.1449-.2642.2586-.3732l-5.2874.4576c.0705.057.1329.1215.1868.1936.1093.1462.2013.3053.2762.4773.075.1721.1704.4021.286.6902l2.4612 5.7465c.1929.437.2893.7581.2893.9635 0 .2136-.0912.4168-.2732.6096-.182.1927-.4015.2995-.6586.3203-.1501.0122-.2786-.0037-.3855-.0474-.1072-.0438-.1971-.1076-.27-.1919-.0729-.0842-.151-.2161-.2345-.3959-.0836-.1795-.1554-.3383-.2153-.4759l-.4498-1.12-3.8299.3092-.4499 1.2179c-.1757.4751-.3256.7983-.4498.9696-.1243.1712-.3278.2685-.6105.2912-.24.0194-.452-.0494-.6362-.2063s-.2762-.3443-.2762-.5621c0-.1258.0213-.2573.0641-.3949.0428-.1375.1136-.3297.2121-.5764l2.4098-6.1778c.0684-.1772.151-.3902.2474-.639.0964-.2486.1992-.457.3084-.6251.0515-.0791.1108-.1518.1774-.2187l-6.1822.5351c.0525.015.104.0311.1539.0494.2956.0976.5568.2503.784.4582.227.2079.3994.457.5173.747.1178.2901.1767.6027.1767.9378 0 .6872-.1982 1.252-.5945 1.6947-.3963.4426-.9971.7823-1.8024 1.0191.3383.1487.6619.3824.9703.7009.3085.3187.5837.6621.8258 1.03.2419.3681.4305.7028.5655 1.0039.135.3013.2024.5106.2024.6278 0 .1216-.0397.2452-.1189.3711-.0794.1258-.1875.2288-.3245.309-.1372.0802-.2956.1276-.4756.1421-.2142.0173-.3942-.0175-.5397-.1041-.1458-.0867-.2711-.2013-.376-.3436-.105-.1423-.2474-.3529-.4273-.6317l-.7647-1.1826c-.2742-.4345-.5195-.7625-.7358-.9838-.2163-.2214-.436-.367-.6586-.437-.2228-.0701-.5035-.0914-.8419-.064l-.6683.054v2.9601c0 .3896-.0878.6838-.2634.8823-.1757.1985-.4049.3092-.6876.332-.3042.0246-.5398-.0528-.7069-.232s-.2506-.4552-.2506-.8282v-7.0891c0-.4022.0921-.7008.2763-.8959.0104-.011.0226-.0209.0337-.0314l-3.7716.3264c.0905.0319.1779.0687.2614.1115.2228.1119.4198.2605.5912.4455.1713.1853.302.3947.392.6283.09.2337.135.4846.135.7527 0 .9218-.4714 1.6344-1.4137 2.1378 1.238.2855 1.8571.9855 1.8571 2.1 0 .5153-.135.9903-.4049 1.4247-.2699.4346-.634.7688-1.0923 1.0027-.2871.1405-.617.2499-.9897.3281-.3727.0784-.8076.1375-1.3045.1777l-2.87893.2324c-.41563.0336-.7123-.0335-.89-.2015-.01712-.0162-.03322-.0338-.0487-.0522v.3649s.03561.0672.10491.085c2.3611.6053 43.78522 11.2269 43.78522 11.2269l10.9739-16.9149v-.5187c-.0596.1401-.1297.2768-.213.4096-.2935.4679-.7229.8502-1.2884 1.1473zm-47.5766-4.8878c-.0041-.0014-.0062-.0022-.0093-.0033.0052.0018.0093.0033.0093.0033zm10.1163-10.86-1.0146.08993c-.3648.03231-.5284.28989-.5284.53024v7.52193c0 .298.2126.4799.5284.4519l1.0146-.0899c.3155-.0279.5279-.2475.5279-.5456v-7.52186c0-.24029-.1632-.46902-.5279-.43664zm38.8717 8.6535c-.0916 0-.0948.0639-.0948.0639 0 .0078.0007.0156.0007.0235 0 .2221-.0803.4286-.241.6196-.1606.1912-.3609.2963-.6008.3157-.2185.0176-.3846-.0224-.498-.1201-.1136-.0976-.2368-.2626-.3696-.495-.1714-.3338-.377-.5885-.6169-.764-.24-.1754-.6255-.2418-1.1567-.1988-.4927.0398-.89.1778-1.192.4136-.3021.236-.4531.5027-.4531.8002 0 .1844.0514.3394.1543.4652.1028.1259.2441.2296.4241.3114.18.082.362.1427.5462.1822.1841.0396.4884.0947.9125.1651.5312.0787 1.0122.1739 1.4427.2858.4306.1119.7968.2603 1.0988.4454s.5376.4311.7068.738c.0095.0172.0178.0355.0268.0532v-3.241c0-.0001-.0119-.0639-.09-.0639zm-51.60159.4797v-5.3238c0-.77431-.31058-1.41758-.89825-1.85902-.58637-.44165-1.30712-.62712-2.14097-.55328-1.04477.09254-1.83189.22647-2.3525.40279-.37095.13874-.41079.40993-.41079.51982v.67258c0 .13046.03534.23801.10369.31961.08813.1033.21999.1525.37129.1391.0249-.0022.08574-.0127.1101-.0199.40362-.1202 1.13604-.2269 2.17821-.31923.26822-.02377.49947.05353.69326.23783.19373.1742.29155.3905.29155.6417v.4449l-2.32556.2059c-.83548.0741-1.56142.3928-2.15809.9483-.59612.5538-.89838 1.2275-.89838 2.003 0 .7858.30812 1.4168.91577 1.8743.58542.4396 1.30556.626 2.1407.5521l3.8685-.3427c.30123-.0267.51147-.2509.51147-.544zm-2.05448-1.0485-2.32556.2061c-.27892.0247-.51801-.0496-.71004-.2232-.19441-.1742-.29223-.3942-.29223-.6561 0-.2513.09782-.4851.29223-.6924.19203-.2063.43112-.3232.71004-.3479l2.32556-.2061zm10.03817 6.0124 1.7093-.1379c.4584-.037.8441-.1069 1.1567-.2098.3127-.1027.5516-.2539.7166-.4538.1648-.1996.2473-.463.2473-.7898 0-.2555-.0665-.4755-.1992-.6596-.1328-.1841-.317-.3147-.5526-.3921-.2228-.0741-.6619-.0849-1.3174-.0319l-1.7607.1421zm-5.5712-4.6789.9974-.0884c.3158-.028.5277-.2474.5277-.5455v-5.3239c0-.2491.1003-.49007.2922-.70765.1924-.2063.4311-.32314.7101-.34785l1.3415-.11884c.2685-.02376.4988.05362.6926.23782.194.17425.2918.3905.2918.64162v5.3239c0 .298.2125.4799.5284.452l1.0149-.09c.3006-.0266.5109-.2509.5109-.544v-5.32385c0-.79262-.3096-1.4184-.9152-1.85744-.5859-.44171-1.3003-.62772-2.1234-.55481l-1.3415.11884c-.826.07324-1.5511.3857-2.1578.93416-.5873.54473-.898 1.24275-.898 2.0181v5.3239c.0001.2979.2125.4799.5284.4519zm-.4114 6.6642c-.3341-.1825-.8333-.247-1.4973-.1934l-1.98561.1604v2.6898l2.04991-.1655c1.2894-.1042 1.9343-.6108 1.9343-1.52-.0001-.4651-.1671-.7888-.5013-.9713zm-3.48298-1.3717 1.74792-.1411c.47556-.0384.84276-.1121 1.10206-.221.2592-.1089.4573-.2924.5944-.5508.1071-.1846.1607-.3859.1607-.6037 0-.4651-.1693-.7603-.5077-.886-.3384-.1256-.8546-.1604-1.54864-.1044l-1.54867.1251v2.3819z" fill="#232328" fill-rule="evenodd"/></svg>