<svg fill="none" height="33" viewBox="0 0 168 33" width="168" xmlns="http://www.w3.org/2000/svg" xmlns:xlink="http://www.w3.org/1999/xlink"><clipPath id="a"><path d="m0 .25h168v32h-168z"/></clipPath><g clip-path="url(#a)" fill="#232328"><path d="m1.92173 12.3906-1.031173 1.0312c-.281229.2812-.515586.6093-.6562.9843-.1406142.375-.234357.7499-.234357 1.1249s.0937428.7968.234357 1.1249c.140614.375.374971.7031.6562.9843l8.249373 8.3431c.18748.1875.42184.375.6562.5156v-10.1242z"/><path d="m20.5736 12.3906 1.0312 1.0312c.2812.2812.5156.6093.6562.9843s.2343.7499.2343 1.1249-.0937.7968-.2343 1.1249c-.1406.375-.375.7031-.6562.9843l-8.2494 8.3431c-.1875.1875-.4218.375-.6562.5156v-10.1242z"/><path d="m18.6004 10.3433-5.1558-5.20274c-.2812-.28123-.6093-.51559-.9843-.6562-.375-.14062-.75-.23436-1.1249-.23436-.375 0-.7968.09374-1.1249.23436-.37501.14061-.70311.37497-.98434.6562l-5.2496 5.20274 7.26504 3.6091z"/><g clip-rule="evenodd" fill-rule="evenodd"><path d="m109.793 10.04c0-.30534.038-.61068.229-.87785.152-.26717.381-.49617.687-.61067.267-.1145.61-.19084.916-.1145.305.03816.572.19083.801.38167.229.229.382.49617.458.80151.077.30534.039.61064-.076.91604-.114.3053-.305.5343-.572.7251-.268.1909-.573.2672-.878.2672-.191 0-.382-.0381-.573-.1145-.191-.0763-.343-.1908-.496-.3053-.153-.1527-.267-.3054-.344-.458-.076-.229-.114-.4199-.152-.6107zm.114 2.748h2.863v10.3052h-2.863zm-76.2195-3.43501h-5.4961v13.74021h5.8777c3.0916 0 4.7328-1.603 4.7328-3.8167.0381-.8397-.2672-1.6794-.8397-2.2901-.5725-.6106-1.374-.9923-2.2137-1.0305v-.1145c.687-.1145 1.3359-.458 1.7939-.9923.458-.5344.687-1.2214.687-1.9466.0381-2.061-1.4885-3.54951-4.5419-3.54951zm1.6412 4.00751c0 1.0687-.916 1.7557-2.0611 1.7557l-2.2137.0382v-3.435h2.2519c1.2977-.0382 2.0229.5343 2.0229 1.6411zm.4198 5.6488c0 1.0305-.6488 1.7175-2.29 1.7175h-2.4046v-3.6259h2.4046c.2671-.0381.5725-.0381.8397.0382.2671.0763.5343.229.7251.3817.229.1908.3817.4198.4962.6488.1527.2672.229.5344.229.8397zm4.4656 4.0839h2.9007l-.0382-13.74021h-2.8625zm4.3892-5.1144c0-3.2061 1.9465-5.3053 5.0762-5.3053s5.0763 2.1374 5.0763 5.3053-1.9466 5.3052-5.0763 5.3052-5.0762-2.0992-5.0762-5.3052zm7.2517 0c0-1.7939-.7633-3.1297-2.1373-3.1297s-2.1755 1.3358-2.1755 3.1297c0 1.7938.7251 3.1297 2.1755 3.1297 1.4122 0 2.1373-1.3359 2.1373-3.1297zm9.0457-5.3053c-3.1297 0-5.0763 2.1756-5.0763 5.3053s1.9084 5.3052 5.0763 5.3052c2.7098 0 4.4274-1.603 4.58-3.9694h-2.7098c-.0382.458-.229.916-.5725 1.2214-.3436.3053-.8016.4962-1.2596.4962-1.3358 0-2.2137-1.1832-2.2137-3.0916s.8779-3.0534 2.2137-3.0534c.458 0 .916.1527 1.2596.4962.3435.3053.5725.7634.5725 1.2214h2.7098c-.1145-2.3664-1.9083-3.9313-4.58-3.9313zm6.0685-3.32051h2.8626v7.32811h.1527l3.3205-3.8931h3.2824l-3.8167 4.4656 4.0075 5.8396h-3.3587l-2.8244-4.1602-.7633.8778v3.2824h-2.8626zm14.8471 3.32051c-3.1297 0-5.0763 2.1756-5.0763 5.3053s1.9084 5.3052 5.0763 5.3052c2.7098 0 4.4274-1.603 4.58-3.9694h-2.6717c-.0381.458-.229.916-.6106 1.2214-.3436.3053-.8016.4962-1.2977.4962-1.3359 0-2.2137-1.1832-2.2137-3.0916s.8778-3.0534 2.2137-3.0534c.458 0 .916.1527 1.2977.4962.3435.3053.5725.7634.6106 1.2214h2.6717c-.0763-2.3664-1.9083-3.9313-4.58-3.9313zm8.9311 10.4197h-2.8626v-13.74021h2.7863v5.26711h.1145c.229-.6107.6488-1.1451 1.2213-1.4886s1.2214-.5343 1.8702-.458c2.1374 0 3.5495 1.4504 3.5495 3.8931v6.5266h-2.8625v-6.0686c.0382-.2672 0-.5343-.0763-.7633-.0764-.2672-.1909-.4581-.3817-.6871-.1908-.1908-.3817-.3435-.6488-.458-.229-.1145-.4962-.1526-.7634-.1145-.2672 0-.5343.0382-.8015.1527s-.4962.2672-.687.458-.3435.4199-.4198.687c-.0764.2672-.1145.5344-.0764.8015v5.9923zm11.9466-6.0304c-2.023.1908-3.8552.8778-3.8552 3.1678 0 2.0229 1.4502 3.0534 3.4352 3.0534.611.0382 1.221-.0763 1.756-.3817.534-.3053.992-.7251 1.259-1.2595h.076v1.4504h2.71v-6.9464c0-2.4427-2.099-3.5114-4.389-3.5114-2.481 0-4.0838 1.1832-4.5037 3.0533l2.6337.229c.114-.3816.382-.687.725-.8778.344-.1908.725-.3053 1.107-.2672.954 0 1.527.4962 1.527 1.3359.038.687-.649.7633-2.481.9542zm2.519 1.2213v1.145c0 .2672-.077.5344-.191.7634-.115.229-.267.458-.496.6107-.191.1908-.42.3053-.687.3816-.267.0764-.535.1145-.764.0764-.877 0-1.526-.4199-1.526-1.2214s.649-1.2213 1.679-1.3358c.687-.0382 1.374-.1909 1.985-.4199zm9.427 4.8091h2.901l-.038-5.9541c-.039-.2672 0-.5343.076-.8015s.229-.4962.42-.687c.191-.1909.42-.3435.649-.458.267-.1145.534-.1527.801-.1527s.534.0382.763.1145c.229.1145.458.2672.611.458.191.1908.305.4198.382.6489.076.229.114.4961.076.7633v6.0686h2.863v-6.5648c0-2.4045-1.413-3.893-3.55-3.893-.649-.0382-1.298.1145-1.87.4961-.573.3435-.992.8779-1.221 1.4886h-.115v-1.8321h-2.71v10.3052z"/><path d="m155.631 12.7747h-2.71v10.3051h2.863v-6.1831c-.038-.229 0-.458.076-.687.077-.229.191-.4198.344-.6107.152-.1908.343-.3053.572-.4198s.458-.1527.687-.1527.42.0382.649.1145c.191.0764.382.1909.534.3435.153.1527.268.3435.344.5344.076.1908.076.4198.076.6488v6.4121h2.786v-6.2976c-.038-.229 0-.458.077-.687.076-.229.191-.4198.343-.5725.153-.1527.344-.3053.573-.3817.229-.0763.458-.1145.687-.1145s.458.0382.649.1145c.191.0764.381.229.534.3817s.267.3435.344.5725c.076.229.076.4199.076.6489v6.3357h2.862v-6.8701c.039-.7633-.229-1.4885-.687-2.0992s-1.106-1.0305-1.832-1.2213c-.725-.1909-1.526-.1145-2.213.1908s-1.26.8397-1.603 1.5267h-.153c-.191-.6107-.534-1.1069-1.069-1.4885-.496-.3435-1.145-.5344-1.755-.4962-.611-.0382-1.26.1527-1.756.4962-.534.3435-.916.8778-1.107 1.4503h-.114v-1.7938zm-20.038-.1145c-3.129 0-5.038 2.1755-5.038 5.3052s1.871 5.3053 5.115 5.3053c2.71 0 4.465-1.6031 4.58-3.9694h-2.672c-.038.458-.229.916-.611 1.2213-.343.3054-.801.4962-1.297.4962-1.336 0-2.214-1.1832-2.214-3.0916 0-1.9083.878-3.0533 2.214-3.0533.458 0 .916.1526 1.297.4961.344.3054.573.7634.611 1.2214h2.634c-.115-2.3664-1.909-3.9312-4.619-3.9312zm-9.045 7.8624c-.305.3054-.458.687-.458 1.1069 0 .229.038.4198.114.6106.077.1909.191.3817.344.5344.153.1526.343.2671.534.3435.191.0763.42.1145.611.1145.42 0 .84-.1527 1.145-.458.305-.3054.458-.7252.458-1.145 0-.4199-.153-.8397-.458-1.1451-.305-.3053-.725-.458-1.145-.458-.42.0382-.84.1909-1.145.4962zm14.732-2.5572c0-3.206 1.947-5.3052 5.077-5.3052 3.129 0 5.076 2.1373 5.076 5.3052s-1.947 5.3053-5.076 5.3053c-3.13 0-5.077-2.0992-5.077-5.3053zm7.214 0c0-1.7938-.763-3.1297-2.137-3.1297s-2.176 1.3359-2.176 3.1297c0 1.7939.763 3.1297 2.176 3.1297 1.45 0 2.137-1.3358 2.137-3.1297z"/></g></g></svg>