<svg fill="none" height="33" viewBox="0 0 66 33" width="66" xmlns="http://www.w3.org/2000/svg" xmlns:xlink="http://www.w3.org/1999/xlink"><clipPath id="a"><path d="m0 3.34375h66v24.0811h-66z"/></clipPath><g clip-path="url(#a)" fill="#232328"><path d="m47.0352 20.7966v-16.96066h3.4091v16.96066z"/><path d="m7.30861 25.8356h-7.30861v-16.9606h7.01471c3.40919 0 5.39569 1.858 5.39569 4.7644 0 1.8813-1.2758 3.097-2.1589 3.5018 1.0541.4762 2.4033 1.5479 2.4033 3.812 0 3.1672-2.2309 4.8824-5.34619 4.8824zm-.56374-14.0062h-3.3357v3.9066h3.3357c1.44679 0 2.25632-.7862 2.25632-1.9539 0-1.1665-.80953-1.9527-2.25632-1.9527zm.22041 6.8844h-3.55611v4.1687h3.55611c1.54561 0 2.28033-.9523 2.28033-2.0966 0-1.1431-.73609-2.0721-2.28033-2.0721z"/><path d="m23.0518 18.8798v6.9558h-3.3852v-6.9558l-5.2486-10.0048h3.703l3.2622 6.8364 3.2129-6.8364h3.703z"/><path d="m37.9649 25.8356h-7.3087v-16.9606h7.0148c3.4092 0 5.3956 1.858 5.3956 4.7644 0 1.8813-1.2758 3.097-2.1588 3.5018 1.054.4762 2.4033 1.5479 2.4033 3.812 0 3.1672-2.2309 4.8824-5.3462 4.8824zm-.5638-14.0062h-3.3357v3.9066h3.3357c1.4468 0 2.2563-.7862 2.2563-1.9539 0-1.1665-.8095-1.9527-2.2563-1.9527zm.2204 6.8844h-3.5561v4.1687h3.5561c1.5456 0 2.2804-.9523 2.2804-2.0966 0-1.1431-.7348-2.0721-2.2804-2.0721z"/><path d="m61.4361 11.8294v14.0075h-3.4092v-14.0075h-4.5621v-2.9544h12.5333v2.9544z"/></g></svg>