<svg fill="none" height="33" viewBox="0 0 156 33" width="156" xmlns="http://www.w3.org/2000/svg" xmlns:xlink="http://www.w3.org/1999/xlink"><clipPath id="a"><path d="m0 .25h156v32h-156z"/></clipPath><clipPath id="b"><path d="m0 2.84375h153v27.518h-153z"/></clipPath><g clip-path="url(#a)"><g clip-path="url(#b)" clip-rule="evenodd" fill="#232328" fill-rule="evenodd"><path d="m34.0637 26.7397h1.6511l.3302 1.0457h.8255l-1.486-4.4579h-.8805l-1.541 4.4579h.7705zm1.4309-.7155h-1.2108l.6054-1.7611zm4.8432 1.7612h1.8162c1.596 0 2.0913-1.0457 2.0913-2.2565 0-1.2658-.6604-2.2014-2.0913-2.2014h-1.8162zm.8255-3.7975h1.0457c.7705 0 1.2108.5504 1.2108 1.486 0 1.0457-.4403 1.541-1.2108 1.541h-1.0457zm7.4849 1.6511c.4953-.1101.8255-.4403.8255-1.1007 0-.8806-.7154-1.2659-1.541-1.2659h-2.0913v4.458h.8255v-1.8162h.9907c.6604 0 .8255.2751.8805.9356.0551.5503.1101.7705.1651.9356h.8256c-.1101-.1651-.1651-.4403-.2202-.9907 0-.6604-.2751-.9906-.6604-1.1557zm-2.0363-.4403v-1.2108h1.3208c.3853 0 .7155.1651.7155.5504 0 .4403-.2752.6054-.7705.6054 0 .055-1.2658.055-1.2658.055zm6.9895-.8255.9357 3.3572h.8255l1.2658-4.458h-.8255l-.8806 3.2472-.8806-3.2472h-.8805l-.8806 3.2472-.8256-3.2472h-.8805l1.2108 4.458h.8805c0 .055.9356-3.3572.9356-3.3572zm10.2918 2.2564-.7155-.3852c-.1651.4953-.4953.8255-1.1558.8255-.9906 0-1.3208-.6054-1.3208-1.596 0-.9356.3852-1.5961 1.3208-1.5961.6605 0 .9357.3853 1.1008.8806l.7154-.3852c-.2751-.7705-.8805-1.2108-1.8162-1.2108-1.4309 0-2.2014.9906-2.2014 2.3115 0 1.3759.7155 2.3115 2.1464 2.3115 1.1558.055 1.7061-.4953 1.9263-1.1558zm1.2108-1.1007c0 1.3759.8805 2.3115 2.2564 2.3115 1.431 0 2.2015-.9906 2.2015-2.3115s-.8806-2.3115-2.2565-2.3115c-1.3209 0-2.2014.9906-2.2014 2.3115zm2.2564-1.596c.8806 0 1.3759.6054 1.3759 1.541 0 1.1007-.4403 1.596-1.3759 1.596-.8805 0-1.3759-.6054-1.3759-1.596 0-.8806.4954-1.541 1.3759-1.541zm8.2004-.6605h-1.1007l-1.1558 3.0821-1.1007-3.0821h-1.1557v4.458h.7154v-3.3572l1.2108 3.3572h.5504l1.2108-3.3572v3.3572h.7705v-4.458zm4.1827 0h-2.2564v4.458h.8255v-1.8713h1.4309c.8806 0 1.486-.4403 1.486-1.3208 0-.8256-.7155-1.2659-1.486-1.2659zm-1.4309 1.9263v-1.1558h1.3759c.3852 0 .6604.1651.6604.5504 0 .4403-.2752.6054-.6604.6054zm4.623 1.541h1.6511l.3302 1.0457h.8256l-1.486-4.4579h-.8806l-1.541 4.4579h.7705zm1.431-.7155h-1.1558l.6054-1.7611zm5.6687.3303-1.9263-3.0821h-.9356v4.458h.7155v-3.3572l2.0913 3.3572h.8256v-4.458h-.7155zm3.6874-.2752v1.6511h.8255v-1.7062l1.541-2.7518h-.8806l-1.0456 1.9263-1.1008-1.9263h-.9356zm-56.2468-9.191c2.5867 0 3.9076-1.2108 4.7881-2.7518l-2.3115-1.3759c-.4403 1.0457-1.2658 1.7611-2.4766 1.7611-1.596 0-2.6968-1.0457-2.6968-3.082 0-1.98129 1.0457-3.02698 2.6418-3.02698 1.2108 0 1.9262.55036 2.4216 1.70608l2.2014-1.32082c-.8255-1.54101-2.1464-2.64173-4.623-2.64173-3.1921 0-5.3936 2.25647-5.3936 5.33845 0 3.0821 1.8713 5.3936 5.4486 5.3936zm11.7227 0c3.0269 0 4.9532-1.3759 4.9532-4.4579v-6.05401h-2.6417v5.88881c0 1.6511-.4953 2.2565-2.2565 2.2565-1.7611 0-2.2565-.6604-2.2565-2.2565v-5.94384h-2.6417v6.05394c-.1101 3.027 1.596 4.513 4.8432 4.513zm7.705-.2202h2.4216v-6.93451l2.6417 6.87951h1.8712l2.6418-6.87951v6.87951h2.5867v-10.29174h-3.6324l-2.4766 6.76944-2.4216-6.76944h-3.6324zm15.0248 0h5.9989c2.917 0 3.7975-1.2108 3.7975-2.9719 0-1.3759-.6054-1.9813-1.541-2.3666.9356-.4403 1.3209-1.0457 1.3209-2.20141 0-1.32086-.8256-2.80683-3.6324-2.80683h-5.9989zm2.6968-4.2928h3.137c1.1008 0 1.431.3302 1.431 1.0457s-.2752 1.0457-1.3209 1.0457h-3.2471zm0-2.0363v-1.76117h3.137c.9907 0 1.2659.27518 1.2659.88058 0 .71549-.3302.88059-1.2659.88059zm9.6313 6.3291h9.136v-2.0913h-6.4393v-2.2015h4.6781v-2.0363h-4.6781v-1.98131h6.2191v-2.03633h-8.9158zm14.0892-3.7424h2.3113c1.321 0 1.816.4403 1.816 1.6511.055 1.3208.11 1.7611.221 2.0913h2.751v-.1101c-.11-.11-.165-.3852-.22-.8255-.11-.9356-.11-1.9813-.385-2.7518-.165-.4403-.716-.8806-1.321-.9906.991-.2752 1.871-.9907 1.871-2.53169 0-1.9813-1.155-3.02698-3.907-3.02698h-5.779v10.29177h2.6967zm0-2.1464v-2.2565h2.9173c1.045 0 1.431.33021 1.431 1.04568 0 .77052-.386 1.21082-1.431 1.21082zm9.5213 5.8888h7.265l.77-2.1464h-5.393v-8.20034h-2.642zm12.493-1.9262h4.238l.66 1.9262h2.807l-3.907-10.29171h-3.193l-3.907 10.29171h2.587zm3.467-1.9813h-2.806l1.375-3.96262zm6.109 3.9075h2.532l-.11-7.26473 4.403 7.26473h3.137v-10.34674h-2.532l.11 6.87954-4.127-6.87954h-3.358zm12.824 0h4.458c3.687 0 5.613-2.1464 5.613-5.2284 0-3.19208-2.146-5.06331-5.558-5.06331h-4.513zm2.696-2.2014v-5.9439h1.982c1.541 0 2.642.88057 2.642 2.9169 0 2.0363-1.046 2.9719-2.642 2.9719h-1.982z"/><path d="m2.52874 18.9305h8.91586l-5.88888 5.8889c1.59604 1.651 3.63237 2.8068 5.83378 3.3021v-5.7787h1.1558l2.3115 2.3115-2.3115 2.3115h1.8712c.5504-.2752 1.0457-.6054 1.541-.9907v-3.5773h-1.1007v-1.1558h-2.3115l2.3115-2.3115-2.3115-2.3115h3.4122v5.7238h1.1558l1.2108 1.2107c.5503-.7154.9906-1.4859 1.3208-2.3115h-2.4766l2.3115-2.3115-2.3115-2.3115h3.4122v-2.3115h-9.1359l9.1359-9.08094h-9.1359v5.72374h-1.1558l-2.3115-2.31151 2.3115-2.31151h-2.3115v-1.10072h-1.15576v5.72374h1.15576v1.1558h2.3115l-2.3115 2.3115 2.3115 2.3115h-3.41222v-5.7788h-1.15576l-2.31151-2.31151 2.31151-2.31151h-2.31151v-1.10072h-1.10072v5.72374h1.15576v1.1558h2.31151l-2.31151 2.3115 2.31151 2.3115h-3.46727c0 .7154.05504 1.486.22015 2.2014z"/><path d="m21.7392 16.6731c0 6.219-4.4029 11.3924-10.2917 12.5482-5.88887-1.2108-10.29174-6.3842-10.29174-12.5482v-12.60328h20.58344zm-21.7392-13.75904v13.70394c0 3.3022 1.15576 6.4392 3.19209 8.9158.99064 1.2108 2.20144 2.2565 3.57733 3.027 1.3759.8256 2.86188 1.431 4.45788 1.7061l.2202.0551.2201-.0551c1.5961-.3302 3.082-.8805 4.4579-1.7061 1.3209-.8255 2.5317-1.8162 3.5774-3.027 2.0913-2.4766 3.1921-5.6687 3.1921-8.9158v-13.70394z"/></g></g></svg>