<svg fill="none" height="33" viewBox="0 0 140 33" width="140" xmlns="http://www.w3.org/2000/svg"><g fill="#232328"><path d="m75.667 9.25057v4.67033h.0443c.7747-1.0182 1.8704-1.5162 3.3091-1.5162.6419 0 1.2395.0996 1.815.3099.5644.2103 1.0735.5201 1.5162.9407s.7858.9407 1.0403 1.5715c.2546.6309.3763 1.3613.3763 2.1803 0 .9296-.166 1.7928-.5091 2.5897-.3431.7968-.8743 1.4387-1.5937 1.9146-.7193.4759-1.6158.7194-2.6893.7194-1.5494 0-2.645-.4981-3.3091-1.483h-.0442v1.2174h-2.9439v-13.11463zm-11.2774 2.87743c5.7107 0 5.2237 6.1312 5.2237 6.1312h-7.8245c.321 1.2174 1.3724 2.0253 2.8111 2.0253 1.7486 0 2.6893-1.0514 2.6893-1.0514l1.6601 1.6933c-.8522.8522-2.0032 1.6269-4.3715 1.6269-3.6633 0-5.6111-2.4237-5.6111-4.9913s1.4609-5.434 5.4229-5.434zm71.1394-.011c2.457 0 4.018.9407 4.018.9407l-1.007 2.1581c-3.276-1.6933-4.748-.4981-4.748.0996 0 .5976.586.6419 2.866 1.0624 2.28.4206 3.342 1.3723 3.342 2.9107 0 1.5383-1.317 3.2316-4.537 3.2316-3.221 0-4.693-1.0293-4.693-1.0293l.974-2.147c2.524 1.5937 5.39 1.0846 5.39.1328 0-.7193-.952-.8632-1.981-.985l-.443-.0553c-.199-.0221-.387-.0443-.575-.0775-1.306-.2102-3.243-.9075-3.243-2.9106 0-2.0032 2.18-3.3312 4.637-3.3312zm-14.398-3.55259v7.92409l4.272-4.1059h3.486l-4.239 4.0616 4.648 6.0538h-3.464l-3.176-4.1392-1.538 1.472v2.6672h-2.855v-13.93359zm-10.237 3.48619c2.025 0 3.796 1.0071 4.781 2.5233l-2.413 1.4166c-.454-.8633-1.339-1.4388-2.368-1.4388-1.483 0-2.69 1.2285-2.69 2.7336 0 1.5162 1.207 2.7336 2.69 2.7336.974 0 1.826-.5312 2.302-1.328l2.423 1.3834c-.996 1.4608-2.733 2.4347-4.725 2.4347-3.088 0-5.589-2.3462-5.589-5.2347 0-2.8775 2.501-5.2237 5.589-5.2237zm-13.2697 0c3.0877 0 5.5887 2.3462 5.5887 5.2347 0 2.8886-2.501 5.2348-5.5887 5.2348-3.0878 0-5.5889-2.3462-5.5889-5.2348-.0111-2.8885 2.5011-5.2347 5.5889-5.2347zm-50.7651.2988v10.0711h-3.0988v-10.0711zm-5.8877-3.05456v2.52336h-6.9391v3.3422h6.1312v2.4901h-6.1312v4.77h-3.0988v-13.12566zm12.5059 4.30516s1.0956-1.7154 3.3644-1.4498v2.811s-2.468-.6308-3.3644 1.9146v5.5447h-2.9549v-10.0711h2.8221l.1328 1.1842zm35.592-5.07986v13.83396h-3.121v-13.83396zm-10.9565 6.08696c-1.7154 0-2.5676 1.0403-2.5676 3.132 0 .7858.2214 1.4498.664 1.9921.4427.5312 1.1068.8079 1.9921.8079.5977 0 1.0735-.155 1.4498-.4648.3652-.3099.6308-.6862.7858-1.14.1549-.4427.2324-.8964.2324-1.3391 0-.8522-.1992-1.5715-.6087-2.136-.4095-.5644-1.0624-.8521-1.9478-.8521zm19.5114-.0554c-1.483 0-2.6893 1.2285-2.6893 2.7336 0 1.5162 1.2063 2.7336 2.6893 2.7336s2.6897-1.2284 2.6897-2.7336c-.011-1.5162-1.2067-2.7336-2.6897-2.7336zm-33.1904-.2324c-1.5162 0-2.3463.9297-2.634 2.1471h5.0688c-.0222-.321-.5313-2.1471-2.4348-2.1471zm-19.1241-6.71774c1.0071 0 1.8261.75257 1.8261 1.67115 0 .91859-.819 1.67109-1.8261 1.67109s-1.826-.7525-1.826-1.67109c0-.92964.8189-1.67115 1.826-1.67115z"/><path d="m20.5628 5.25c.4648 0 .8411.37628.8411.8411v19.4561c0 .4648-.3763.8411-.8411.8411h-19.721695c-.464821 0-.841105-.3763-.841105-.8411v-19.44503c0-.46482.376284-.8411.841105-.8411h19.721695zm-9.8609 5.8767-5.95409 9.396h11.89719z"/></g></svg>