<svg fill="none" height="33" viewBox="0 0 78 33" width="78" xmlns="http://www.w3.org/2000/svg"><g fill="#232328"><path clip-rule="evenodd" d="m19.4014 12.1275c0 12.1215-9.70065 15.422-9.70065 15.422s-9.70075-3.3005-9.70075-15.422v-4.36323c0-.47824.371969-.86202.838411-.89745 1.759469-.08266 5.939639-.43691 8.862339-2.00744 2.92855 1.57053 7.10275 1.92478 8.86225 2.01335.4665.02952.8384.4133.8384.89154zm-8.4725-.3188c1.4405.1358 2.5742.5904 2.6922 1.913.0886.9683-.3188 1.5469-.9683 1.8775 1.0687.2598 1.73.8975 1.5883 2.3204-.1772 1.7595-1.4998 2.2259-3.3772 2.3203l.0059 1.8482h-1.12774l.00592-1.8304c-.2893-.0059-.58452-.0119-.89157-.0178l-.01184 1.8482-1.10996-.006-.00592-1.8598c-.25983 0-2.03107.0059-2.03107.0059l.01181-1.3462 1.25174-.0059.00592-5.9043h-1.42888v-1.1749s2.01339 0 2.25546-.0059l-.00592-1.83625 1.12773-.0059v1.81265c.30113-.0059.61398-.0059.9092-.0059l-.00592-1.78904 1.11584-.0059zm-1.8081 7.0829c.9113.0196 2.9012.0625 2.9121-1.2141.0106-1.3006-1.9119-1.2695-2.8534-1.2543-.10569.0017-.19904.0032-.27586.0026l.00592 2.4621c.06092.0005.13194.002.21124.0037zm-.00642-3.5841c.75346.0189 2.41172.0601 2.42252-1.1017.0053-1.1921-1.62047-1.1548-2.39255-1.1371-.08065.0019-.15205.0035-.21124.0035l.00592 2.2318c.05044.0005.10938.0019.17535.0035z" fill-rule="evenodd"/><path d="m36.5724 19.2903c0 .8195-.16 1.504-.4848 2.0587-.3247.5546-.7544 1.0042-1.2891 1.339-.5346.3398-1.1442.5796-1.8287.7296-.6846.1499-1.3841.2198-2.1037.2198h-5.9559v-14.9499h5.9559c.5796 0 1.1693.05995 1.7739.17987s1.1542.32479 1.6489.61459c.4947.28981.8944.67954 1.2042 1.17424.3097.4946.4646 1.1192.4646 1.8787 0 .8295-.2248 1.519-.6745 2.0586-.4496.5447-1.0443.9343-1.7738 1.1743v.0399c.4247.07.8195.1999 1.1942.3897.3748.1899.6995.4348.9693.7296.2749.2947.4947.6395.6546 1.0343.1649.3947.2449.8394.2449 1.329zm-4.0973-6.2707c0-.5047-.1949-.8744-.5796-1.1093-.3898-.2348-.9593-.3497-1.7239-.3497h-1.7738v3.0829h1.9437c.6746 0 1.1992-.1349 1.574-.4097.3747-.2749.5596-.6796.5596-1.2142zm.4847 5.936c0-.6196-.2299-1.0493-.6995-1.2891-.4647-.2398-1.0843-.3599-1.8588-.3599h-2.0087v3.4228h2.0287c.2797 0 .5746-.025.8744-.0749.3048-.05.5796-.135.8244-.2649.2448-.1249.4447-.3048.5997-.5396.1649-.2298.2398-.5296.2398-.8944z"/><path d="m41.3747 9.76591c0 .26979-.055.51969-.16.74949-.1049.2348-.2448.4347-.4247.5996-.1749.1699-.3897.3048-.6346.3997-.2448.1-.5046.1499-.7694.1499-.5647 0-1.0343-.1848-1.4141-.5596-.3797-.3747-.5696-.8194-.5696-1.33909 0-.25484.0499-.49468.1499-.72952.0999-.23483.2398-.4347.4247-.59959.1849-.16989.3947-.30479.6345-.40972.2399-.10494.4997-.15989.7795-.15989.2699 0 .5247.04996.7695.14989.2449.09993.4598.22985.6347.39974.1748.16988.3147.36974.4246.59959.105.22984.155.47968.155.7495zm-3.7176 13.87559v-10.5179h3.4627v10.5179z"/><path d="m47.3997 15.7058v4.0273c0 .4946.0949.8644.2848 1.1142.1899.2499.5297.3698 1.0243.3698.1699 0 .3497-.0151.5397-.04.1898-.03.3497-.0699.4746-.1249l.04 2.5333c-.2398.0849-.5397.1599-.9094.2198-.3647.065-.7345.0949-1.0992.0949-.7045 0-1.2942-.0899-1.7738-.2647-.4797-.1749-.8645-.4298-1.1493-.7646-.2898-.3297-.4947-.7294-.6246-1.1841-.1249-.4597-.1898-.9694-.1898-1.534v-4.447h-1.6889v-2.5783h1.6689v-2.7681h3.4027v2.7681h2.4734v2.5783z"/><path d="m62.4067 23.6609c-.9793.2398-2.0436.3597-3.2028.3597-1.1992 0-2.2985-.1898-3.3078-.5696-1.0093-.3797-1.8737-.9144-2.5982-1.6039-.7246-.6896-1.2941-1.519-1.6989-2.4833-.4097-.9644-.6146-2.0386-.6146-3.2228 0-1.1992.2098-2.2835.6246-3.2529.4147-.9693.9893-1.7987 1.7239-2.4833.7294-.68452 1.5888-1.20917 2.5782-1.57392.9844-.36476 2.0486-.54963 3.1878-.54963 1.1843 0 2.2835.17987 3.2979.53963 1.0142.35976 1.8387.83943 2.4733 1.44902l-2.2835 2.5983c-.3547-.4098-.8194-.7445-1.394-1.0044-.5796-.2598-1.2342-.3897-1.9638-.3897-.6345 0-1.2191.1149-1.7537.3498-.5346.2298-.9994.5546-1.3941.9693s-.6996.9093-.9193 1.479c-.2199.5696-.3298 1.1942-.3298 1.8688 0 .6895.0999 1.3241.2947 1.9037.1949.5796.4898 1.0743.8744 1.489.3848.4147.8644.7395 1.4341.9693.5696.2348 1.2191.3498 1.9536.3498.4248 0 .8245-.03 1.2042-.095.3798-.0649.7346-.1648 1.0544-.3048v-2.7231h-2.8531v-2.913h6.1708v7.9196c-.7245.3747-1.5789.6846-2.5583.9244z"/><path d="m77.9986 18.3453c0 .8595-.1549 1.6389-.4647 2.3334-.3098.6996-.7345 1.2892-1.2692 1.7738-.5346.4848-1.1542.8644-1.8587 1.1293-.7045.2698-1.459.3997-2.2585.3997-.7895 0-1.5389-.1348-2.2485-.3997-.7095-.2699-1.3291-.6445-1.8587-1.1293-.5297-.4846-.9493-1.0793-1.2592-1.7738-.3097-.6995-.4647-1.4739-.4647-2.3334 0-.8594.155-1.6339.4647-2.3234.3099-.6896.7295-1.2742 1.2592-1.7538.5296-.4797 1.1492-.8445 1.8587-1.0993.7096-.2548 1.459-.3797 2.2485-.3797.8045 0 1.554.1249 2.2585.3797s1.3241.6196 1.8587 1.0993c.5347.4796.9594 1.0642 1.2692 1.7538.3098.6895.4647 1.464.4647 2.3234zm-3.3378 0c0-.3397-.0549-.6695-.1698-.9943s-.2749-.6096-.4848-.8544c-.2098-.2449-.4696-.4447-.7795-.5996-.3097-.155-.6695-.2299-1.0792-.2299s-.7695.0799-1.0792.2299c-.3099.1549-.5647.3547-.7696.5996-.2048.2448-.3597.5296-.4647.8544-.1048.3248-.1598.6546-.1598.9943 0 .3398.055.6695.1598.9943.105.3249.2649.6147.4748.8744.2098.2599.4696.4697.7794.6246.3099.1549.6696.2349 1.0793.2349s.7694-.075 1.0793-.2349c.3097-.1549.5696-.3647.7794-.6246.2099-.2597.3698-.5545.4748-.8744.1099-.3248.1598-.6545.1598-.9943z"/></g></svg>