<svg fill="none" height="33" viewBox="0 0 74 33" width="74" xmlns="http://www.w3.org/2000/svg" xmlns:xlink="http://www.w3.org/1999/xlink"><clipPath id="a"><path d="m0 5.88281h74v21.6897h-74z"/></clipPath><mask id="b" height="23" maskUnits="userSpaceOnUse" width="74" x="0" y="5"><path d="m74 5.89844h-74v21.68966h74z" fill="#fff"/></mask><g clip-path="url(#a)"><g fill="#232328" mask="url(#b)"><path d="m37.0205 16.622h5.4384v.5052c-1.2886.1959-1.7384.3923-1.7384 2.1588v5.6629c-1.849 1.1795-4.0019 1.7939-6.1949 1.7677-6.135 0-10.0647-4.0643-10.0647-9.8114 0-5.8881 4.486-10.12076 10.7371-10.12076 2.6078 0 4.6262.53331 6.364 1.40153v3.14053h-.5327c-.925-2.52492-2.8592-3.70509-5.9156-3.70509-5.4383 0-9.2544 3.84099-9.2544 9.16709 0 5.5238 3.7574 9.0841 8.9425 9.0841 1.6816 0 3.2515-.3375 4.6531-1.0398v-5.5181c0-1.7952-.3917-1.9916-2.4382-2.1843zm7.0358 8.1865v-3.3076h.5326c1.1215 3.2777 3.1961 4.3736 5.5277 4.3736 2.2698 0 4.6792-1.4296 4.6792-4.0655 0-1.7097-1.0098-2.6914-3.3076-3.7574l-2.8599-1.3173c-2.4114-1.1209-3.8977-2.6628-3.8977-4.9912 0-2.66275 2.2155-4.96185 5.8881-4.96185 1.9342 0 3.9513.61688 5.1863 1.37347v3.11308h-.5333c-.8963-2.80688-2.8069-3.63938-4.7934-3.63938-2.6914 0-4.514 1.62673-4.514 3.98198 0 1.9903 1.2625 3.055 3.1961 3.9239l2.8879 1.3173c2.5791 1.1783 3.9807 2.5237 3.9807 4.7386 0 2.9708-2.6347 5.1296-6.031 5.1296-2.1322.0028-4.2111-.6659-5.9417-1.9113zm29.9406 1.5981v.0842h-1.7103l-9.5594-9.9518h-1.5138v6.8961c0 2.2991.416 2.4394 1.7671 2.5504v.5053h-4.7953v-.5053c1.4021-.111 1.7677-.2513 1.7677-2.5504v-13.2039c0-2.10328-.312-2.55174-1.7671-2.72016v-.50396h6.054c4.1784 0 6.8418 1.7945 6.8418 4.67922 0 2.8324-2.5517 4.7666-6.5886 4.907zm-12.7841-10.7096h2.7756c3.6726 0 5.7191-1.4558 5.7191-3.982 0-2.43816-2.0184-3.86777-5.6904-3.86777h-2.8081z"/><path d="m10.8142 13.3953v-7.12186h-.8006v7.12186c.2658-.0333.5348-.0333.8006 0zm-5.71904-5.67631-.67366.43252 3.84672 5.99019c.20682-.1704.43316-.3156.6743-.4325zm-4.03237 4.30991-.332997.7278 6.476917 2.9581c.08165-.2552.19329-.4995.333-.7272l-6.47692-2.9594zm-1.06279 5.8064.114828.7923 7.047222-1.0143c-.06838-.2586-.10628-.5243-.11291-.7917zm7.62583.7955-5.38031 4.6626.51991.6042 5.38223-4.6627c-.19693-.1803-.37185-.3834-.52119-.6047zm-.54033 8.0418.76743.2258 2.00693-6.8323c-.26436-.0439-.5224-.1195-.7687-.2251zm5.8977.2258.7687-.2258-2.0018-6.8316c-.2464.1052-.5045.1806-.7688.2245l2.0019 6.8322zm-.2973-7.6628 5.3809 4.6639.5251-.6054-5.3861-4.6633c-.1486.2216-.3231.4246-.5199.6048zm.9888-1.6217 7.0479 1.0137.1148-.7923-7.0504-1.0143c-.0064.2679-.0434.5339-.1123.7929zm6.4322-4.8572-.3323-.7278-6.4776 2.958c.1404.2284.252.4727.333.7279zm-3.6923-4.60583-.6737-.43188-3.8473 5.99021c.2409.117.467.2622.6736.4325zm-9.3291-1.33966.76871-.22519 1.31924 4.49358-.76871.2258zm4.5784 4.26709 1.3186-4.49355.7687.22519-1.3192 4.49356zm-9.41902-.8899.52438-.60474 3.54052 3.06844-.52375.6048zm-2.24488 5.4588.113552-.7923 4.636478.6666-.11418.7923zm.791672 5.0792 4.263298-1.9674.33619.7285-4.2633 1.9674zm3.631108 4.6059 2.53258-3.9405.67366.4325-2.53259 3.9411zm5.59462-2.8063h.8006v4.6831h-.8006zm3.1897-.7036.6743-.4338 2.5326 3.9411-.6737.4338zm2.3074-2.3132.333-.7278 4.2607 1.9456-.3323.7292zm.5709-3.9864 4.6365-.6666.1142.7923-4.6365.6666zm-1.5597-2.8701 3.5418-3.06904.5237.60544-3.5405 3.0684z"/></g></g></svg>