<svg fill="none" height="33" viewBox="0 0 104 33" width="104" xmlns="http://www.w3.org/2000/svg" xmlns:xlink="http://www.w3.org/1999/xlink"><clipPath id="a"><path d="m0 7.57031h104v16.7246h-104z"/></clipPath><g clip-path="url(#a)" clip-rule="evenodd" fill="#232328" fill-rule="evenodd"><path d="m38.7843 7.52344h1.634c1.9763.18684 3.7385.90773 5.2865 2.16266-.6224.9415-1.2793 1.8546-1.9704 2.7394-1.2812-.9132-2.7069-1.4578-4.2773-1.634-.8807-.0327-1.5376.3197-1.9704 1.0573-.178.7812.0943 1.3419.817 1.682 1.5278.5102 3.0657.9908 4.6136 1.4418 3.005 1.2858 3.9501 3.4805 2.8355 6.5841-.6695 1.3686-1.7429 2.2498-3.2199 2.6433-2.8601.6646-5.5514.248-8.074-1.2496-.4929-.3169-.9413-.6853-1.3456-1.1053.6759-.9037 1.3968-1.7688 2.1626-2.5952 1.4098 1.201 3.0438 1.8738 4.9021 2.0185.5902-.0369 1.151-.181 1.682-.4326.75-.6649.814-1.3698.1923-2.1146-.3577-.2429-.7421-.4351-1.1534-.5767-1.0168-.3182-2.042-.6066-3.0758-.8651-3.6497-1.0352-4.8512-3.3581-3.6045-6.9685.5772-1.05769 1.4262-1.81061 2.5472-2.25881.667-.24485 1.3399-.42107 2.0185-.52865z" opacity=".972"/><path d="m22.4463 7.61296c1.1772-.03093 2.3467.0011 3.5083.09612 2.3229 5.47872 4.6457 10.95752 6.9686 16.43622-1.2804.1121-2.5619.1281-3.8447.0481-.5281-1.1842-1.0087-2.3857-1.4418-3.6045-2.3077-.032-4.6145 0-6.9205.0961-.4806 1.1535-.9612 2.3069-1.4418 3.4603-1.2804.1121-2.5619.1281-3.8447.0481 2.3796-5.5118 4.7184-11.0386 7.0166-16.58044zm1.634 4.70984c.1715.1032.2837.2634.3364.4805.6219 1.4979 1.2147 3.0038 1.7782 4.5176-1.378.0161-2.7558 0-4.1331-.0481.6865-1.6451 1.3594-3.2952 2.0185-4.95z" opacity=".977"/><path d="m-.046875 7.8125h3.748615v6.4399h6.53606c0-2.1466 0-4.29326 0-6.4399h3.7486v16.4362c-1.2495 0-2.4991 0-3.7486 0 0-2.1787 0-4.3573 0-6.536-2.1787 0-4.35738 0-6.53606 0v6.536c-1.24954 0-2.49908 0-3.748615 0 0-5.4787 0-10.9575 0-16.4362z" opacity=".971"/><path d="m48.207 7.8125h3.6525v6.4399h6.5361c0-2.1466 0-4.29326 0-6.4399h3.7486v16.4362c-1.2496 0-2.4991 0-3.7486 0 0-2.1787 0-4.3573 0-6.536-2.1787 0-4.3574 0-6.5361 0v6.536c-1.2175 0-2.4349 0-3.6525 0 0-5.4787 0-10.9575 0-16.4362z" opacity=".984"/><path d="m68.006 7.81069c1.7624-.01601 3.5246.00001 5.2865.04806-2.5485 2.56445-5.1116 5.11165-7.6895 7.64145-.8971-.8331-1.7621-1.6981-2.5952-2.5952 1.6681-1.7001 3.3342-3.39821 4.9982-5.09431z" opacity=".975"/><path d="m74.5391 7.8125h12.4953v3.268c-2.9476 0-5.8952 0-8.8428 0v3.268h7.7855v3.2681c-2.5952 0-5.1903 0-7.7855 0v3.3641h8.939v3.268c-4.1972 0-8.3943 0-12.5915 0 0-5.4787 0-10.9575 0-16.4362z" opacity=".987"/><path d="m103.953 7.81069v.09612c-2.12 3.24549-4.2182 6.51349-6.2954 9.80409-.048 2.1784-.0644 4.3571-.048 6.536-1.2178 0-2.435 0-3.6525 0 .016-2.1469 0-4.2935-.0481-6.4399-2.0985-3.3161-4.1972-6.6322-6.2957-9.94825 1.4418-.06408 2.8835-.06408 4.3253 0 1.3097 2.12262 2.6073 4.25325 3.8928 6.39185 1.2851-2.1386 2.5827-4.26923 3.8928-6.39185 1.4088-.04805 2.8188-.06407 4.2288-.04806z" opacity=".979"/><path d="m65.5069 16.6406c2.6031 2.4588 5.1663 4.974 7.6895 7.5453-1.7302.0641-3.4603.0641-5.1904 0-1.6661-1.666-3.3322-3.3321-4.9982-4.9981.8525-.8365 1.6855-1.6855 2.4991-2.5472z" opacity=".978"/></g></svg>