<svg fill="none" height="40" viewBox="0 0 116 40" width="116" xmlns="http://www.w3.org/2000/svg" xmlns:xlink="http://www.w3.org/1999/xlink"><clipPath id="a"><path d="m0 10.8203h116v18.6543h-116z"/></clipPath><g clip-path="url(#a)" clip-rule="evenodd" fill="#232328" fill-rule="evenodd"><path d="m43.2589 10.7578h1.8226c2.2043.2084 4.1699 1.0125 5.8965 2.4122-.6942 1.0501-1.4269 2.0686-2.1978 3.0555-1.429-1.0185-3.0192-1.6261-4.7708-1.8226-.9824-.0364-1.715.3567-2.1978 1.1793-.1986.8714.1052 1.4968.9113 1.8762 1.7041.569 3.4194 1.105 5.146 1.6081 3.3517 1.4342 4.4059 3.8821 3.1627 7.3438-.7469 1.5266-1.9441 2.5093-3.5915 2.9483-3.1901.7413-6.192.2767-9.0056-1.3938-.5497-.3534-1.05-.7644-1.5009-1.2329.7539-1.0079 1.558-1.9728 2.4122-2.8946 1.5724 1.3396 3.395 2.09 5.4676 2.2514.6584-.0411 1.2839-.2019 1.8762-.4825.8364-.7416.9078-1.5278.2144-2.3586-.3989-.2709-.8277-.4853-1.2865-.6432-1.134-.355-2.2775-.6766-3.4307-.9649-4.0708-1.1547-5.4109-3.7456-4.0203-7.7726.6438-1.1797 1.5908-2.0195 2.841-2.5194.7441-.2731 1.4945-.4697 2.2514-.5897z" opacity=".972"/><path d="m25.0372 10.8643c1.313-.0345 2.6174.0012 3.9131.1072 2.5909 6.1109 5.1817 12.2218 7.7726 18.3327-1.4281.125-2.8575.1429-4.2883.0536-.589-1.3208-1.1251-2.6609-1.6081-4.0203-2.574-.0357-5.147 0-7.7191.1072-.536 1.2865-1.0721 2.573-1.6081 3.8595-1.4281.125-2.8576.1429-4.2884.0536 2.6542-6.1478 5.2629-12.3123 7.8263-18.4935zm1.8225 5.2532c.1913.1151.3164.2938.3753.5361.6936 1.6707 1.3548 3.3503 1.9833 5.0388-1.537.0179-3.0738 0-4.61-.0536.7657-1.835 1.5162-3.6755 2.2514-5.5213z" opacity=".977"/><path d="m-.0546875 11.0859h4.1811475v7.183h7.29024c0-2.3943 0-4.7886 0-7.183h4.1811v18.3328c-1.3937 0-2.7874 0-4.1811 0 0-2.4301 0-4.8601 0-7.2902-2.43011 0-4.86017 0-7.29024 0v7.2902c-1.39372 0-2.78743 0-4.1811475 0 0-6.111 0-12.2219 0-18.3328z" opacity=".971"/><path d="m53.7656 11.0859h4.074v7.183h7.2902c0-2.3943 0-4.7886 0-7.183h4.1811v18.3328c-1.3937 0-2.7874 0-4.1811 0 0-2.4301 0-4.8601 0-7.2902-2.4301 0-4.8601 0-7.2902 0v7.2902c-1.3581 0-2.716 0-4.074 0 0-6.111 0-12.2219 0-18.3328z" opacity=".984"/><path d="m75.8561 11.0848c1.9658-.0178 3.9314 0 5.8965.0536-2.8425 2.8604-5.7014 5.7014-8.5767 8.5231-1.0006-.9291-1.9655-1.894-2.8947-2.8946 1.8607-1.8963 3.7189-3.7903 5.5749-5.6821z" opacity=".975"/><path d="m83.1406 11.0859h13.9372v3.6451c-3.2878 0-6.5755 0-9.8632 0v3.6451h8.6839v3.6451c-2.8947 0-5.7893 0-8.6839 0v3.7524h9.9704v3.6451c-4.6815 0-9.3629 0-14.0444 0 0-6.111 0-12.2219 0-18.3328z" opacity=".987"/><path d="m115.944 11.0848v.1072c-2.365 3.62-4.705 7.2651-7.022 10.9353-.054 2.4298-.072 4.8599-.054 7.2902-1.358 0-2.715 0-4.073 0 .017-2.3946 0-4.7889-.054-7.183-2.341-3.6987-4.682-7.3974-7.0222-11.0961 1.6081-.0714 3.2162-.0714 4.8242 0 1.461 2.3676 2.908 4.744 4.342 7.1294 1.433-2.3854 2.881-4.7618 4.342-7.1294 1.572-.0536 3.145-.0714 4.717-.0536z" opacity=".979"/><path d="m73.0687 20.9375c2.9034 2.7425 5.7623 5.5478 8.5767 8.4159-1.9298.0715-3.8595.0715-5.7893 0-1.8582-1.8583-3.7166-3.7166-5.5749-5.5749.9509-.9329 1.8801-1.8799 2.7875-2.841z" opacity=".978"/></g></svg>