<svg fill="none" height="33" viewBox="0 0 111 33" width="111" xmlns="http://www.w3.org/2000/svg" xmlns:xlink="http://www.w3.org/1999/xlink"><clipPath id="a"><path d="m0 3.91406h111v24.9968h-111z"/></clipPath><g clip-path="url(#a)"><g fill="#232328"><path d="m4.49352 11.2082c.86341-.8444 3.1447-3.60183 4.00812-4.67052.88246-1.11101 1.18931-1.60409 1.18931-1.85169 0-.16507-.03809-.26664-.44017-.37034-.19258-.04021-.24971-.10369-.24971-.20527s.05713-.16507.24971-.16507c.67084 0 1.09412.06137 1.93632.06137.8423 0 2.0316-.06137 2.3194-.06137.3069 0 .3449.06137.3449.18623 0 .08253-.019.16507-.2497.18623-.4401.04021-.728.10369-1.0348.22643-.6708.2476-1.1322.51424-2.148 1.64642-.90148 1.00732-3.37534 3.84728-3.87265 4.42288 1.01579 1.5025 4.33405 5.2885 5.17625 6.1519 1.6867 1.7289 2.2432 2.0379 2.8569 2.222.364.1037.4212.1037.6899.1439.2688.0212.383.0614.383.1862 0 .1439-.0952.1863-.3639.1863h-1.6486c-2.167 0-2.8378-.2265-3.91076-1.42-1.47712-1.6253-3.64201-4.3213-5.23341-6.4397v1.8919c0 1.894 0 3.5193.05714 4.4039.03809.5756.21162 1.0285.68989 1.111.26876.0402.68988.0825.9396.0825.15237 0 .24971.0614.24971.1651 0 .1439-.15236.2053-.36399.2053-1.07292 0-2.28128-.0614-2.76166-.0614-.44018 0-1.64854.0614-2.416728.0614-.249714 0-.383036-.0614-.383036-.2053 0-.1037.076184-.1651.306852-.1651.287802 0 .518472-.0402.689892-.0825.38303-.0825.47826-.5354.55656-1.1322.09523-.8634.09523-2.4887.09523-4.3827v-3.62083c0-3.12777 0-3.70339-.03809-4.36153-.03809-.70047-.19258-1.02848-.82533-1.17239-.15448-.0402-.478262-.06137-.747022-.06137-.211622 0-.325898-.0402-.325898-.18622s.133322-.18623.421128-.18623c1.015782 0 2.224152.06137 2.685482.06137.46134 0 1.66758-.06137 2.31938-.06137.26876 0 .40208.04021.40208.18623s-.11428.18622-.26876.18622c-.19258 0-.30685.02117-.53752.06137-.51847.1037-.67084.45288-.70893 1.17239-.03809.65814-.03809 1.23376-.03809 4.36153v1.29723z"/><path d="m19.8769 11.3026c0-2.66859 0-3.16167-.0339-3.72247-.0339-.59677-.1968-.89516-.5566-.98404-.1798-.05291-.3936-.06984-.5904-.06984-.1629 0-.2624-.03597-.2624-.17564 0-.10581.1312-.13967.3936-.13967.6222 0 1.6528.0529 2.1268.0529.4084 0 1.3756-.0529 1.9977-.0529.2116 0 .3429.03597.3429.13967 0 .13967-.0974.17564-.2625.17564-.165 0-.2941.01693-.4909.05291-.4423.08888-.5735.38727-.6053 1.00097-.0338.56292-.0338 1.05388-.0338 3.72247v3.0918c0 1.7035 0 3.0918.0656 3.8473.0487.474.1629.7893.6539.8613.2285.0359.5883.0698.8338.0698.1799 0 .2624.0529.2624.1397 0 .1227-.1312.1756-.3111.1756-1.0793 0-2.112-.0529-2.5543-.0529-.3767 0-1.4073.0529-2.0633.0529-.2137 0-.328-.0529-.328-.1756 0-.0889.0656-.1397.2624-.1397.2455 0 .4423-.036.5883-.0698.328-.0699.4254-.3683.4741-.8783.0825-.7385.0825-2.1247.0825-3.8282v-3.0918z"/><path d="m27.1803 6.51084c0-.3513.0529-.59678.2285-.59678.1947 0 .3513.22855.6518.54387.2117.22855 2.8887 3.0918 5.4599 5.63757 1.1978 1.1936 3.6632 3.8114 3.9637 4.0928l-.1757-7.97391c-.0169-1.0708-.1756-1.40517-.5989-1.58081-.2645-.10581-.6877-.10581-.9332-.10581-.2116 0-.2815-.05291-.2815-.15872 0-.13967.1947-.15872.4571-.15872.9164 0 1.7607.05291 2.1311.05291.1947 0 .8634-.05291 1.7268-.05291.2286 0 .4042.01693.4042.15872 0 .10581-.1058.15872-.3174.15872-.1757 0-.3175 0-.5291.0529-.4931.13967-.6349.51001-.6518 1.49194-.0698 3.70549-.1227 7.37719-.1947 11.08269 0 .3872-.0698.5438-.2285.5438-.1947 0-.4042-.1926-.5989-.3872-1.1089-1.0539-3.3648-3.3543-5.1953-5.1636-1.9195-1.8962-3.9277-4.1457-4.2452-4.47795l.1926 7.43005c.036 1.3692.2645 1.8263.6158 1.949.2984.1059.6349.1228.9163.1228.1926 0 .2984.036.2984.1397 0 .1396-.1587.1756-.4042.1756-1.1448 0-1.8495-.0529-2.1839-.0529-.1587 0-.9862.0529-1.9025.0529-.2285 0-.3873-.0169-.3873-.1756 0-.1059.1058-.1397.2815-.1397.2285 0 .546-.0169.7936-.0868.4571-.1397.529-.6497.546-2.1776.0529-3.7224.1227-8.06066.1587-10.39696z"/><path d="m54.8964 18.307c0 .474-.0169.51-.2328.6327-1.1597.5968-2.9077.7894-4.298.7894-4.37 0-8.2406-2.038-8.2406-6.8841 0-2.8103 1.4814-4.77631 3.1024-5.74342 1.712-1.0179 3.2992-1.14064 4.7975-1.14064 1.2295 0 2.7997.21162 3.1574.28145.3745.06984.9988.17565 1.4094.19258.2137.01693.2497.08888.2497.21162 0 .19258-.1249.68566-.1249 2.88018 0 .28146-.0529.36822-.1968.36822-.1249 0-.1608-.08888-.1778-.22855-.0529-.4042-.1417-.965-.6073-1.45808-.5354-.56291-1.9618-1.36919-3.9764-1.36919-.9798 0-2.2834.06983-3.532 1.08985-.9988.82533-1.64 2.14378-1.64 4.30228 0 3.7753 2.4442 6.6047 6.2068 6.6047.4635 0 1.0878 0 1.5153-.1926.2666-.1227.3385-.3512.3385-.6496v-1.6507c0-.8782 0-1.5448-.0169-2.0718-.019-.5967-.1777-.8782-.7661-1.0009-.1417-.036-.4465-.0529-.6962-.0529-.1608 0-.2666-.036-.2666-.1397 0-.1397.1248-.1757.3745-.1757.9269 0 2.0507.0529 2.5861.0529s1.4982-.0529 2.0866-.0529c.2306 0 .3576.036.3576.1757 0 .1058-.1079.1397-.2307.1397-.1418 0-.2666.0169-.4825.0529-.4825.0888-.6602.3872-.6772 1.0009-.019.527-.019 1.2296-.019 2.1078v1.9321z"/><path d="m58.5692 19.2762c-.3068-.1227-.3661-.2116-.3661-.5968 0-.965.0762-2.0189.0953-2.3003.019-.2624.0761-.4571.2306-.4571.1736 0 .1926.1587.1926.2984 0 .2285.0762.5967.1735.8951.4233 1.2994 1.5576 1.7734 2.7511 1.7734 1.7311 0 2.5776-1.0708 2.5776-2.0019 0-.8613-.2878-1.6676-1.8856-2.8104l-.8846-.6327c-2.1162-1.511-2.8463-2.7405-2.8463-4.16261 0-1.93211 1.7692-3.32035 4.4441-3.32035.7301 0 1.3078.06983 1.7691.13967.3259.0529.5778.10581.7894.15871.1735.03598.2688.08889.2688.21163 0 .22855-.0762.73856-.0762 2.10775 0 .38727-.0572.52694-.2116.52694-.1355 0-.1926-.10581-.1926-.31532 0-.15871-.0953-.70258-.4995-1.15968-.2878-.33437-.8464-.86131-2.0971-.86131-1.4242 0-2.2898.75549-2.2898 1.80937 0 .8084.4423 1.4221 2.0401 2.5289l.5396.3682c2.3278 1.5978 3.1553 2.8103 3.1553 4.4779 0 1.0179-.4233 2.2305-1.8094 3.0559-.9629.5629-2.04.7195-3.06.7195-1.1153 0-1.9808-.1228-2.8083-.4571z"/><path d="m69.6131 7.93354c-.2117-.64968-.4064-1.07081-.654-1.24645-.1947-.12274-.5481-.15872-.7068-.15872-.1777 0-.2835-.01693-.2835-.15872 0-.12274.1417-.15871.3893-.15871.9206 0 1.894.0529 2.0528.0529.1587 0 .9374-.0529 1.9638-.0529.2476 0 .3725.0529.3725.15871 0 .13967-.1418.15872-.3175.15872-.1417 0-.3195 0-.4422.06984-.1588.06983-.1947.19257-.1947.38726 0 .22856.1777.82533.3893 1.6168.3005 1.15969 1.947 6.47983 2.2834 7.53373l3.4685-9.22036c.1778-.49096.3005-.63275.4423-.63275.1947 0 .2836.26453.5143.82532l3.716 8.90509c.3365-1.2465 1.7523-5.8831 2.3723-7.93797.1228-.4042.1778-.77242.1778-1.0179 0-.28146-.1587-.52694-.8486-.52694-.1778 0-.3005-.05291-.3005-.15872 0-.12274.1418-.15872.4063-.15872.9375 0 1.6803.05291 1.8411.05291.1249 0 .8846-.05291 1.4687-.05291.1947 0 .3195.03598.3195.13967 0 .12275-.0889.17565-.2476.17565-.1777 0-.4253.01693-.62.08888-.4254.15872-.6201.8613-.9904 1.86228-.8148 2.21357-2.6728 7.79827-3.5383 10.43297-.1947.6137-.2836.8253-.5143.8253-.1778 0-.2836-.2116-.5481-.8613l-3.6991-8.8521c-.3535.948-2.7067 7.1655-3.4685 8.7823-.3365.7195-.4254.9311-.637.9311-.1778 0-.2476-.1926-.4063-.6497l-3.7521-11.15244z"/><path d="m90.114 14.9109c-.0909 0-.1248.036-.1608.1397l-.9713 2.512c-.1799.4401-.2709.8613-.2709 1.0708 0 .3153.1608.5438.7195.5438h.2709c.2158 0 .2709.036.2709.1397 0 .1397-.108.1757-.3069.1757-.5756 0-1.3501-.0529-1.9088-.0529-.1989 0-1.1872.0529-2.1247.0529-.2349 0-.3428-.036-.3428-.1757 0-.1058.1079-.1397.2518-.1397.1629 0 .3788-.0169.5227-.0359.8274-.1058 1.1703-.7026 1.53-1.5808l4.5182-11.02979c.2158-.51001.3428-.70259.5036-.70259.1439 0 .2709.15872.4508.56292.4317.965 3.3119 8.13266 4.4631 10.80116.6835 1.5808 1.2062 1.8263 1.5829 1.9152.2709.0529.5397.0698.7555.0698.1443 0 .2353.036.2353.1397 0 .1397-.1633.1757-.8278.1757s-2.0887 0-3.5278-.036c-.3238-.0169-.4148-.036-.4148-.1397 0-.0889.072-.1397.2519-.1587.127-.036.2518-.1926.1629-.4042l-1.439-3.7224c-.036-.0889-.091-.1228-.1799-.1228h-4.0145zm3.6717-.8782c.091 0 .1079-.0529.091-.1058l-1.6189-4.33825c-.055-.15872-.127-.21162-.1989 0l-1.6549 4.32135c-.0191.0698 0 .1227.0719.1227h3.3119z"/><path d="m103.038 14.9425c0-.9481-.176-1.3354-.402-1.8433-.123-.2814-2.468-4.14564-3.0793-5.05773-.4381-.64968-.8762-1.08986-1.2084-1.28243-.2286-.12274-.5248-.22855-.7343-.22855-.1397 0-.2624-.03598-.2624-.15872 0-.10581.1227-.15872.3322-.15872.3153 0 1.6274.05291 2.2051.05291.3681 0 1.0861-.05291 1.8731-.05291.175 0 .262.05291.262.15872s-.123.12274-.385.19258c-.157.03597-.245.17564-.245.31531s.086.3513.209.59678c.246.52694 2.694 4.75936 2.975 5.25036.176-.4211 2.381-4.28537 2.625-4.82923.175-.38727.245-.68566.245-.91421 0-.17565-.07-.36822-.368-.43806-.157-.03598-.315-.06983-.315-.17565 0-.12274.086-.15871.298-.15871.578 0 1.136.0529 1.644.0529.385 0 1.541-.0529 1.873-.0529.193 0 .315.03597.315.13967 0 .12274-.139.17564-.332.17564-.176 0-.508.06984-.77.21163-.368.17564-.561.38726-.946.8613-.578.70258-3.026 4.82922-3.342 5.58472-.262.6327-.262 1.1766-.262 1.7564v1.4412c0 .2815 0 1.0179.053 1.7565.036.51.192.8951.717.965.246.0359.631.0698.874.0698.193 0 .28.0529.28.1397 0 .1227-.14.1756-.369.1756-1.102 0-2.205-.0529-2.677-.0529-.438 0-1.54.0529-2.188.0529-.245 0-.385-.036-.385-.1756 0-.0889.087-.1397.279-.1397.246 0 .455-.036.612-.0698.349-.0699.508-.4571.542-.965.053-.7386.053-1.475.053-1.7565v-1.4412z"/><path d="m22.1766 27.8498c-.9311-.838-1.1766-1.9173-1.1766-2.8823 0-.6666.2032-1.8263 1.1131-2.6876.7068-.6539 1.6168-1.0221 3.0072-1.0221.5777 0 .9417.0339 1.3692.1037.364.0571.6412.127.9311.1608.0974.0106.1397.0572.1397.1143 0 .0804-.0212.218-.0423.5629-.0106.3217-.0106.8846-.0318 1.092-.0106.1503-.0317.2307-.1185.2307-.0741 0-.1185-.0804-.1185-.218-.0106-.2878-.0973-.6328-.3534-.9079-.3111-.3555-1.0285-.6094-1.894-.6094-.7809 0-1.3057.1947-1.712.5735-.6518.6327-.8571 1.5385-.8571 2.5035 0 2.2622 1.5744 3.4346 2.9225 3.4346.8359 0 1.3057-.091 1.6697-.5291.1608-.1841.2666-.4592.3111-.6666.0423-.1714.074-.2074.1502-.2074.0635 0 .0974.0699.0974.1503 0 .1269-.1185.9988-.2138 1.3544-.0423.1714-.0846.2179-.2455.2878-.3745.1608-1.0813.2179-1.6802.2179-1.2846 0-2.3871-.2645-3.2654-1.056z"/><path d="m34.3315 26.3553c-.0424 0-.0635.0233-.0847.0804l-.4719 1.2528c-.0847.2413-.1397.4825-.1397.5968 0 .2878.3323.2984.5354.2984.1291 0 .1609.0465.1609.091 0 .0804-.0741.1037-.1715.1037-.3322 0-.7174-.0339-1.0496-.0339-.1079 0-.6433.0339-1.1343.0339-.1185 0-.1714-.0233-.1714-.1037 0-.0572.0529-.1037.1291-.1037.6751-.0698.8232-.2074 1.0708-.8719l2.2686-5.754c.1925-.5396.3005-.7576.4169-.7576.0846 0 .1396.1037.2455.3555.1819.5629 1.767 4.4801 2.3659 5.9487.3428.8613.6095 1.0116.8359 1.056.0973.0233.2561.0233.3534.0233.1185 0 .1608.0465.1608.1037 0 .0698-.0423.1037-.182.1037-.4486 0-1.5744.0233-2.2474-.0233-.0973-.0106-.1608-.0339-.1608-.091 0-.0465.0423-.0698.0973-.091.0974-.0338.1714-.0698.108-.2074l-.728-1.9406c-.0106-.0465-.0424-.0698-.0868-.0698zm1.9151-.5735c.0529 0 .0529-.0233.0424-.0571l-.8359-2.3427c-.0318-.091-.0635-.1143-.108 0l-.8465 2.3427c-.0105.0338 0 .0571.0424.0571h1.7014z"/><path d="m44.9769 24.2257c0-1.4009 0-1.7226-.0212-2.0443-.0212-.311-.1079-.4719-.3851-.529-.0847-.0233-.2349-.0339-.3746-.0466-.0974 0-.1608-.0338-.1608-.1037 0-.0698.0634-.1037.2137-.1037.4825 0 1.1343.0339 1.3819.0339.3957 0 .9417-.0339 1.3819-.0339 1.1872 0 1.6168.3556 1.8623.6095.2031.2074.4592.5968.4592 1.274 0 1.2634-1.0497 2.2389-2.3765 2.2389-.0424 0-.1609 0-.2138-.0105-.0423-.0233-.1185-.0466-.1185-.1143s.0741-.091.2561-.091c.5777 0 1.2422-.6095 1.2422-1.5851 0-.3915-.0106-1.0327-.5037-1.494-.3322-.3111-.7279-.3555-.9628-.3555-.1397 0-.2667.0105-.3429.0338-.0529.0106-.0846.0698-.0846.1947v3.8473c0 .8719 0 1.6422.0529 2.057.0211.2878.0846.493.364.529.1396.0339.3322.0339.4592.0466.1185 0 .1608.0465.1608.091 0 .0698-.074.1142-.1714.1142-.6306 0-1.3057-.0338-1.5194-.0338-.182 0-.8571.0338-1.2317.0338-.1185 0-.182-.0338-.182-.1036 0-.0466.0424-.1037.1609-.1037.129-.0106.2349-.0106.3322-.0339.182-.0466.2349-.2413.2667-.5502.0529-.4021.0529-1.1364.0529-2.0443v-1.7226z"/><path d="m55.6769 24.2236c0-1.4941 0-1.7226-.0212-2.0443-.0211-.3216-.1185-.4825-.3216-.529-.0974-.0233-.2138-.0339-.3323-.0466-.0973 0-.1502-.0338-.1502-.1143 0-.0571.0635-.091.2137-.091.3746 0 1.0179.0339 1.2528.0339.2137 0 .8465-.0339 1.2105-.0339.1291 0 .182.0339.182.091 0 .0805-.0529.1143-.1503.1143-.0973.0106-.1396.0106-.2455.0339-.256.0465-.3322.2179-.3534.5523-.0317.3111-.0317.5396-.0317 2.0337v1.7226c0 .9184.0106 1.6655.0529 2.0781.0212.2646.0973.4719.3746.5058.1396.0339.2666.0339.4063.0466.1185 0 .1608.0571.1608.1037 0 .0698-.0741.1036-.182.1036-.6306 0-1.2422-.0338-1.4665-.0338-.182 0-.8232.0338-1.1999.0338-.1291 0-.1926-.0338-.1926-.1036 0-.0466.0423-.1037.1608-.1037.1291-.0106.2032-.0106.29-.0339.182-.0466.2666-.218.2899-.4931.0529-.4126.0529-1.1491.0529-2.1014v-1.7226z"/><path d="m66.6536 25.9452c0 .8719 0 1.6422.0423 2.0676.0318.2645.0847.4825.3746.5163.1291.0233.3217.0339.4592.0466.108 0 .1609.0466.1609.091 0 .0698-.0635.1143-.1926.1143-.6201 0-1.274-.0339-1.5089-.0339-.2137 0-.8676.0339-1.2316.0339-.1291 0-.1926-.0466-.1926-.1143 0-.0466.0423-.091.1608-.091.1291-.0106.2349-.0106.3217-.0339.2032-.0465.2561-.2518.2899-.5396.0423-.4127.0424-1.1491.0424-2.057v-3.9742c-.3535 0-1.0603 0-1.4878.0338-.5459.0466-.7068.091-.8359.345-.0634.127-.0846.2074-.1291.3216-.0211.0699-.0529.1143-.1079.1143-.0635 0-.0846-.0571-.0846-.1714.0106-.2074.182-1.0221.2031-1.1491.0212-.1376.0529-.2074.108-.2074.074 0 .1608.091.3957.1143.2561.0338.6412.0571.9629.0571h3.7901c.3005 0 .5037-.0338.6434-.0571.1396-.0233.2137-.0466.2666-.0466.0635 0 .0741.0572.0741.2307 0 .1947-.0424.9079-.0424 1.1597-.0105.1037-.0317.1608-.0973.1608-.0741 0-.0847-.0571-.0974-.1947 0-.0338-.0105-.0804-.0105-.1269-.0212-.2646-.2455-.5291-1.0391-.5397-.2561-.0233-.6539-.0338-1.2422-.0465v3.9742z"/><path d="m74.9456 26.3553c-.0424 0-.0657.0233-.0868.0804l-.4783 1.2528c-.0867.2413-.1418.4825-.1418.5968 0 .2878.3365.2984.5418.2984.1312 0 .1629.0465.1629.091 0 .0804-.0761.1037-.1735.1037-.3365 0-.728-.0339-1.0623-.0339-.108 0-.6518.0339-1.1513.0339-.1185 0-.1735-.0233-.1735-.1037 0-.0572.055-.1037.1312-.1037.6836-.0698.8359-.2074 1.0856-.8719l2.3004-5.754c.1947-.5396.3047-.7576.4232-.7576.0868 0 .1418.1037.2497.3555.1841.5629 1.7904 4.4801 2.3977 5.9487.3471.8613.6179 1.0116.8465 1.056.0973.0233.2603.0233.3576.0233.1185 0 .163.0465.163.1037 0 .0698-.0423.1037-.1841.1037-.455 0-1.5957.0233-2.2792-.0233-.0973-.0106-.1629-.0339-.1629-.091 0-.0465.0423-.0698.0973-.091.0973-.0338.1735-.0698.1079-.2074l-.7385-1.9406c-.0106-.0465-.0445-.0698-.0868-.0698h-2.148zm1.9426-.5735c.0551 0 .0551-.0233.0424-.0571l-.8465-2.3427c-.0318-.091-.0656-.1143-.1079 0l-.8571 2.3427c-.0106.0338 0 .0571.0423.0571h1.7247z"/><path d="m86.9242 25.9483c0 1.2063 0 1.8834.1925 2.057.1503.1608.3852.2306 1.1343.2306.4931 0 .8571-.0105 1.1026-.2518.1291-.127.2455-.3915.2793-.6327.0212-.091.0318-.1841.108-.1841.0761 0 .0867.0804.0867.1946 0 .127-.0867.9079-.1608 1.183-.0635.2307-.1079.2645-.5777.2645-.9523 0-1.82-.0571-2.8252-.0571-.3851 0-.7809.0339-1.2211.0339-.129 0-.2031-.0339-.2031-.1037 0-.0466.0529-.091.1608-.1037.1185-.0106.2243-.0106.3005-.0339.2243-.0571.2899-.2412.3217-.62.0423-.4021.0423-1.1364.0423-1.9766v-1.7226c0-1.494 0-1.7226-.0211-2.0337-.0212-.3216-.0974-.4719-.3852-.5396-.0741-.0233-.2032-.0339-.3217-.0466-.1079 0-.1714-.0338-.1714-.1037 0-.0698.0741-.1037.2243-.1037.4487 0 1.0285.0339 1.3058.0339.2031 0 .9734-.0339 1.3374-.0339.1503 0 .2032.0339.2032.1037 0 .0699-.0529.1037-.182.1037-.108.0106-.2349.0106-.3534.0466-.2561.0465-.3323.2074-.3535.5523-.0211.3111-.0211.5291-.0211 2.0443v1.6993z"/></g><path d="m92.4805 24.9922h18.4115" stroke="#232328" stroke-linecap="round" stroke-linejoin="round" stroke-width=".211622"/><path d="m.109375 24.9922h18.303225" stroke="#232328" stroke-linecap="round" stroke-linejoin="round" stroke-width=".222203"/></g></svg>