<svg width="130" height="40" viewBox="0 0 130 40" fill="none" xmlns="http://www.w3.org/2000/svg">
<path d="M26.2832 23.0097V16.9891C26.2832 16.768 26.151 16.545 25.9591 16.4339L20.3527 13.1981C20.1636 13.0888 19.8988 13.089 19.7106 13.198L14.0696 16.434C13.878 16.5447 13.7134 16.7679 13.7134 16.9891V23.0097C13.7134 23.2309 13.8775 23.454 14.0693 23.5649L19.6913 26.8005C19.7859 26.8553 19.9058 26.8843 20.0211 26.8843C20.1363 26.8843 20.2517 26.8554 20.3461 26.8008L25.9574 23.5647C26.1488 23.4537 26.2832 23.2307 26.2832 23.0097Z" fill="#0081C2"/>
<path d="M11.5238 23.0559V17.0188C11.5238 16.7921 11.4155 16.5674 11.2161 16.4594L7.4518 14.4162C7.3701 14.372 7.2803 14.3486 7.19031 14.3486C6.89644 14.3486 6.66724 14.5841 6.66724 14.8848V25.1899C6.66724 25.4905 6.90282 25.7261 7.19679 25.7261C7.28677 25.7261 7.38019 25.7027 7.4617 25.6586L11.2148 23.6151C11.414 23.5072 11.5238 23.2825 11.5238 23.0559Z" fill="#006394"/>
<path d="M21.4587 11.2848L27.0875 14.5355C27.1827 14.5904 27.2938 14.6194 27.4102 14.6194C27.5197 14.6194 27.6254 14.5934 27.7167 14.544L31.47 12.5134C31.6457 12.4185 31.7521 12.2471 31.7547 12.055C31.7572 11.8628 31.6553 11.6886 31.4829 11.5893L21.932 6.07504C21.847 6.0259 21.7549 6 21.6601 6C21.3674 6 21.1411 6.23492 21.1411 6.53488V10.7297C21.1412 10.9509 21.2669 11.174 21.4587 11.2848Z" fill="#008BD1"/>
<path d="M8.59062 12.5132L12.3445 14.544C12.4356 14.5933 12.5417 14.6193 12.6513 14.6193C12.768 14.6193 12.88 14.5902 12.9752 14.5352L18.5709 11.2844C18.7622 11.1736 18.8561 10.9506 18.8561 10.7296V6.53488C18.8561 6.23492 18.6617 6 18.3688 6C18.2739 6 18.1961 6.026 18.1116 6.07494L8.56958 11.589C8.39674 11.6886 8.29933 11.8627 8.3018 12.0547C8.30428 12.2468 8.41493 12.4182 8.59062 12.5132Z" fill="#00527A"/>
<path d="M32.8316 14.3486C32.7418 14.3486 32.6641 14.372 32.5826 14.4161L28.8061 16.4593C28.6065 16.5671 28.4729 16.7919 28.4729 17.0188V23.0559C28.4729 23.2827 28.6131 23.5074 28.8125 23.6151L32.5925 25.6519C32.6742 25.6962 32.7705 25.713 32.8604 25.713C33.0171 25.713 33.1356 25.6504 33.2347 25.5299C33.3131 25.4344 33.3294 25.3178 33.3294 25.1898V14.8848C33.3295 14.584 33.1256 14.3486 32.8316 14.3486Z" fill="#007DBD"/>
<path d="M18.5701 28.7142L13.0252 25.5028C12.8402 25.3958 12.5914 25.3919 12.4028 25.4939L8.65329 27.5247C8.47779 27.6196 8.37371 27.7911 8.37114 27.9831C8.36866 28.1752 8.47141 28.3493 8.64386 28.4486L18.1276 33.9227C18.2126 33.9719 18.3082 33.997 18.4031 33.997C18.5614 33.997 18.6743 33.9274 18.773 33.8043C18.8499 33.7085 18.8558 33.5915 18.8558 33.464V29.2692C18.8558 29.0483 18.762 28.8253 18.5701 28.7142Z" fill="#003957"/>
<path d="M31.4025 27.5255L27.649 25.4949C27.461 25.3931 27.2033 25.3966 27.018 25.5036L21.4585 28.7151C21.2669 28.8259 21.1411 29.049 21.1411 29.2702V33.465C21.1411 33.7649 21.3673 33.9999 21.6601 33.9999C21.7549 33.9999 21.8484 33.974 21.9333 33.9249L31.4157 28.4498C31.5886 28.3502 31.69 28.1761 31.6874 27.9839C31.6849 27.7916 31.578 27.6202 31.4025 27.5255Z" fill="#00527A"/>
<path d="M46 14.6527V12.1929H57.5893V14.6527H53.2691V26.304H50.3201V14.6527H46Z" fill="#04060B"/>
<path d="M71.821 19.2485C71.821 20.7873 71.5293 22.0964 70.9459 23.1759C70.3671 24.2553 69.5771 25.0799 68.5757 25.6495C67.5789 26.2144 66.4581 26.4969 65.2133 26.4969C63.9593 26.4969 62.8339 26.2121 61.8371 25.6426C60.8403 25.073 60.0525 24.2484 59.4738 23.169C58.895 22.0895 58.6056 20.7827 58.6056 19.2485C58.6056 17.7097 58.895 16.4005 59.4738 15.3211C60.0525 14.2416 60.8403 13.4194 61.8371 12.8544C62.8339 12.2848 63.9593 12 65.2133 12C66.4581 12 67.5789 12.2848 68.5757 12.8544C69.5771 13.4194 70.3671 14.2416 70.9459 15.3211C71.5293 16.4005 71.821 17.7097 71.821 19.2485ZM68.7962 19.2485C68.7962 18.2517 68.6469 17.4111 68.3483 16.7267C68.0543 16.0422 67.6386 15.5232 67.1012 15.1695C66.5638 14.8158 65.9344 14.6389 65.2133 14.6389C64.4921 14.6389 63.8628 14.8158 63.3254 15.1695C62.7879 15.5232 62.3699 16.0422 62.0714 16.7267C61.7774 17.4111 61.6304 18.2517 61.6304 19.2485C61.6304 20.2453 61.7774 21.0859 62.0714 21.7703C62.3699 22.4547 62.7879 22.9738 63.3254 23.3275C63.8628 23.6812 64.4921 23.858 65.2133 23.858C65.9344 23.858 66.5638 23.6812 67.1012 23.3275C67.6386 22.9738 68.0543 22.4547 68.3483 21.7703C68.6469 21.0859 68.7962 20.2453 68.7962 19.2485Z" fill="#04060B"/>
<path d="M85.8339 12.1929V26.304H83.2569L77.1178 17.4226H77.0144V26.304H74.031V12.1929H76.6493L82.7402 21.0675H82.8642V12.1929H85.8339Z" fill="#04060B"/>
<path d="M95.2217 26.304H92.0247L96.8961 12.1929H100.741L105.605 26.304H102.408L98.8735 15.4175H98.7633L95.2217 26.304ZM95.0219 20.7574H102.574V23.0863H95.0219V20.7574Z" fill="#04060B"/>
<path d="M107.249 30.2728V15.7207H110.142V17.4984H110.273C110.402 17.2136 110.588 16.9242 110.831 16.6302C111.079 16.3316 111.401 16.0836 111.796 15.8861C112.196 15.684 112.692 15.5829 113.284 15.5829C114.056 15.5829 114.768 15.785 115.42 16.1892C116.073 16.5889 116.594 17.1929 116.984 18.0013C117.375 18.8052 117.57 19.8135 117.57 21.0261C117.57 22.2067 117.379 23.2034 116.998 24.0165C116.622 24.8249 116.107 25.4382 115.455 25.8562C114.807 26.2696 114.081 26.4763 113.277 26.4763C112.708 26.4763 112.223 26.3821 111.824 26.1938C111.429 26.0054 111.105 25.7689 110.852 25.4841C110.599 25.1947 110.407 24.903 110.273 24.609H110.184V30.2728H107.249ZM110.122 21.0124C110.122 21.6417 110.209 22.1906 110.384 22.6591C110.558 23.1276 110.811 23.4928 111.142 23.7547C111.472 24.0119 111.874 24.1405 112.347 24.1405C112.825 24.1405 113.229 24.0096 113.56 23.7478C113.891 23.4813 114.141 23.1139 114.311 22.6453C114.486 22.1722 114.573 21.6279 114.573 21.0124C114.573 20.4014 114.488 19.864 114.318 19.4001C114.148 18.9361 113.898 18.5732 113.567 18.3114C113.236 18.0496 112.83 17.9187 112.347 17.9187C111.87 17.9187 111.465 18.045 111.135 18.2976C110.808 18.5503 110.558 18.9086 110.384 19.3725C110.209 19.8364 110.122 20.3831 110.122 21.0124Z" fill="#04060B"/>
<path d="M119.527 30.2728V15.7207H122.421V17.4984H122.552C122.68 17.2136 122.866 16.9242 123.11 16.6302C123.358 16.3316 123.679 16.0836 124.074 15.8861C124.474 15.684 124.97 15.5829 125.563 15.5829C126.334 15.5829 127.046 15.785 127.699 16.1892C128.351 16.5889 128.872 17.1929 129.263 18.0013C129.653 18.8052 129.848 19.8135 129.848 21.0261C129.848 22.2067 129.658 23.2034 129.276 24.0165C128.9 24.8249 128.385 25.4382 127.733 25.8562C127.085 26.2696 126.36 26.4763 125.556 26.4763C124.986 26.4763 124.502 26.3821 124.102 26.1938C123.707 26.0054 123.383 25.7689 123.13 25.4841C122.878 25.1947 122.685 24.903 122.552 24.609H122.462V30.2728H119.527ZM122.4 21.0124C122.4 21.6417 122.487 22.1906 122.662 22.6591C122.836 23.1276 123.089 23.4928 123.42 23.7547C123.751 24.0119 124.152 24.1405 124.626 24.1405C125.103 24.1405 125.508 24.0096 125.838 23.7478C126.169 23.4813 126.419 23.1139 126.589 22.6453C126.764 22.1722 126.851 21.6279 126.851 21.0124C126.851 20.4014 126.766 19.864 126.596 19.4001C126.426 18.9361 126.176 18.5732 125.845 18.3114C125.514 18.0496 125.108 17.9187 124.626 17.9187C124.148 17.9187 123.744 18.045 123.413 18.2976C123.087 18.5503 122.836 18.9086 122.662 19.3725C122.487 19.8364 122.4 20.3831 122.4 21.0124Z" fill="#04060B"/>
</svg>
