<svg fill="none" height="32" viewBox="0 0 72 32" width="72" xmlns="http://www.w3.org/2000/svg" xmlns:xlink="http://www.w3.org/1999/xlink"><clipPath id="a"><path d="m0 6.47656h67.8283v19.0462h-67.8283z"/></clipPath><g clip-path="url(#a)"><path d="m19.8926 6.48438h-19.440202c-.120639 0-.235678.04438-.320556.12409-.0413139.03813-.074339.08435-.0970206.13579-.0226817.05144-.03453466.107-.0348214.16322v18.19072c0 .112.0473941.2197.132273.299.084878.0793.199917.1241.319694.1241h19.440633c.1202 0 .2348-.0448.3201-.1241.0414-.0381.0745-.0843.0972-.1357.0228-.0515.0347-.1071.0351-.1633v-18.19072c0-.11202-.0474-.21974-.1323-.29901-.0872-.08036-.2015-.1247-.3201-.12409zm-6.3293 12.26822c0 .112-.0474.2197-.1327.299-.0869.0802-.201.1245-.3192.1241h-5.87777c-.11978 0-.23481-.0448-.31969-.1241-.04139-.0381-.0745-.0843-.09726-.1358-.02275-.0514-.03467-.107-.03501-.1632v-5.4995c0-.112.04739-.2197.13227-.299.08488-.0797.19991-.1241.31969-.1241h5.87777c.1197 0 .2348.0444.3192.1241.0415.038.0747.0842.0976.1357.0228.0514.0348.107.0351.1633zm47.0279-5.9217h-5.8777c-.2499 0-.4524.1896-.4524.4231v5.4994c0 .2335.2025.4231.4524.4231h5.8773c.2499 0 .4524-.1896.4524-.4231v-5.4994c0-.234-.2025-.4231-.4524-.4231zm-6.7804-6.34652h-5.8773c-.2499 0-.4524.18958-.4524.42353v5.49949c0 .2335.2025.4231.4524.4231h5.8769c.2499 0 .4524-.1896.4524-.4231v-5.49949c0-.23395-.2025-.4231-.4524-.4231zm13.5655 0h-5.8777c-.2495 0-.452.18958-.452.42353v5.49949c0 .2335.2025.4231.4524.4231h5.8769c.2499 0 .4524-.1896.4524-.4231v-5.49949c0-.23395-.2025-.4231-.4524-.4231zm-13.5655 12.69172h-5.8773c-.2499 0-.4524.1896-.4524.4231v5.4999c0 .2335.2025.4226.4524.4226h5.8769c.2499 0 .4524-.1895.4524-.4226v-5.4999c0-.2335-.2021-.4231-.452-.4231zm13.5655 0h-5.8777c-.2495 0-.452.1896-.452.4231v5.4999c0 .2335.2025.4226.4524.4226h5.8769c.2499 0 .4524-.1895.4524-.4226v-5.4999c0-.2335-.2025-.4231-.4524-.4231zm-23.7462-12.69172h-5.8768c-.2499 0-.4524.18958-.4524.42353v5.49949c0 .2335.2025.4231.4524.4231h5.8768c.2499 0 .4525-.1896.4525-.4231v-5.49949c0-.23395-.2026-.4231-.4525-.4231zm0 12.69172h-5.8768c-.2499 0-.4524.1896-.4524.4231v5.4999c0 .2335.2025.4226.4524.4226h5.8768c.2499 0 .4525-.1895.4525-.4226v-5.4999c0-.2335-.2026-.4231-.4525-.4231zm-6.3309-5.9277c0-.112-.0483-.2198-.1327-.2995-.0872-.0801-.2014-.1243-.3197-.1236h-6.3297v-5.91782c0-.11202-.0474-.21974-.1323-.29901-.0871-.0803-.2013-.12463-.3197-.12409h-5.8773c-.1202 0-.2353.04438-.3201.12409-.0414.03809-.0745.0843-.0973.13574-.0227.05144-.0347.10702-.035.16327v18.18122c0 .112.0474.2198.1323.299.0848.0793.1999.1241.3201.1241h5.8769c.1202 0 .2352-.0448.3201-.1241.0849-.0792.1323-.187.1323-.299v-5.9178h6.3292c.1202 0 .2353-.0448.3202-.1241.0413-.0381.0744-.0843.0972-.1357.0227-.0515.0347-.107.035-.1633z" fill="#232328"/></g></svg>