<svg fill="none" height="33" viewBox="0 0 117 33" width="117" xmlns="http://www.w3.org/2000/svg"><g fill="#232328"><path clip-rule="evenodd" d="m4.0123 6.26123c2.56573-2.56744 6.0516-4.01123 9.683-4.01123s7.1173 1.44379 9.683 4.01123c2.5679 2.56744 4.0123 6.05337 4.0123 9.68407 0 3.6308-1.4444 7.1167-4.0123 9.6841-2.5657 2.5674-6.0516 4.0112-9.683 4.0112s-7.11727-1.4438-9.683-4.0112c-2.56787-2.5674-4.0123-6.0533-4.0123-9.6841 0-3.6307 1.44443-7.11663 4.0123-9.68407zm10.222 5.35487c-1.4481.6028-4.34423 1.8504-8.68848 3.7427-.70542.2806-1.07565.555-1.10824.8232-.05732.4531.51009.6318 1.28107.8746.10576.0333.21535.0678.32769.1044.76129.2472 1.78559.5366 2.3164.548.48425.0105 1.02203-.1885 1.61569-.5969 4.06027-2.7395 6.15317-4.1242 6.28587-4.154.0932-.021.2213-.0475.3074.03.0885.0773.0791.224.0698.2633-.0549.2393-2.2754 2.3038-3.4308 3.3781-.3633.3377-.6213.5776-.6736.6321-.117.1215-.2362.2364-.3507.3468-.7066.6811-1.2366 1.1921.0294 2.0262.6139.4044 1.1039.7381 1.5936 1.0717.5262.3584 1.052.7166 1.7309 1.1619.1746.1144.3413.2332.5036.349.6171.4399 1.1715.8351 1.8572.772.3981-.0365.8102-.4109 1.0174-1.5275.4935-2.6389 1.4643-8.3563 1.6878-10.7123.021-.2063-.0046-.4705-.0233-.5865-.0209-.1159-.0629-.28119-.2119-.40342-.1792-.14504-.4539-.17554-.5773-.17344-.5611.01001-1.4201.30894-5.5595 2.03006z" fill-rule="evenodd"/><path d="m36.9113 12.1654h-3.884v-2.48571h10.3896v2.48571h-3.8839v11.4189h-2.6217z"/><path d="m47.8653 23.895c-.9839 0-1.8708-.2266-2.6605-.6797s-1.4112-1.0746-1.8643-1.8643c-.4402-.8027-.6603-1.7025-.6603-2.6994 0-.9451.2201-1.8189.6603-2.6216.4402-.8157 1.0487-1.463 1.8255-1.942.7767-.479 1.6442-.7185 2.6022-.7185 1.0228 0 1.9031.22 2.6411.6602s1.2947 1.0422 1.6701 1.8061c.3884.7638.5826 1.6118.5826 2.544 0 .2977-.0194.5826-.0583.8544h-7.4377c.1294.7898.4401 1.3918.9321 1.8061.5049.4013 1.1069.602 1.806.602.5826 0 1.0811-.123 1.4954-.369.4272-.2589.7638-.602 1.0098-1.0292l2.0585 1.0098c-1.0098 1.7607-2.544 2.6411-4.6025 2.6411zm2.3498-6.4668c-.0259-.3107-.1424-.615-.3496-.9127-.1942-.3108-.4725-.5632-.835-.7574-.3496-.2072-.7639-.3107-1.2429-.3107-.6085 0-1.1328.1812-1.573.5437-.4272.3496-.7379.8286-.9321 1.4371z"/><path d="m54.2382 9.67969h2.544v13.90461h-2.544z"/><path d="m63.6375 23.895c-.9839 0-1.8707-.2266-2.6605-.6797-.7897-.4531-1.4111-1.0746-1.8643-1.8643-.4402-.8027-.6602-1.7025-.6602-2.6994 0-.9451.22-1.8189.6602-2.6216.4402-.8157 1.0487-1.463 1.8255-1.942s1.6442-.7185 2.6022-.7185c1.0228 0 1.9032.22 2.6411.6602.738.4402 1.2947 1.0422 1.6701 1.8061.3884.7638.5826 1.6118.5826 2.544 0 .2977-.0194.5826-.0582.8544h-7.4378c.1295.7898.4402 1.3918.9321 1.8061.505.4013 1.107.602 1.8061.602.5826 0 1.081-.123 1.4953-.369.4272-.2589.7639-.602 1.0098-1.0292l2.0585 1.0098c-1.0098 1.7607-2.544 2.6411-4.6025 2.6411zm2.3498-6.4668c-.0259-.3107-.1424-.615-.3495-.9127-.1942-.3108-.4726-.5632-.8351-.7574-.3495-.2072-.7638-.3107-1.2428-.3107-.6085 0-1.1329.1812-1.573.5437-.4273.3496-.738.8286-.9322 1.4371z"/><path d="m74.8607 28.0897c-1.2558 0-2.298-.2849-3.1266-.8545-.8286-.5567-1.3853-1.2299-1.6701-2.0197l2.3886-.971c.2072.492.5244.8804.9516 1.1652.4272.2849.9127.4273 1.4565.4273.8027 0 1.4371-.246 1.9031-.738.4791-.4919.7186-1.1911.7186-2.0973v-.7768h-.1554c-.3107.4402-.7185.7768-1.2234 1.0098-.505.2331-1.0811.3496-1.7284.3496-.8156 0-1.5795-.2072-2.2915-.6215-.6992-.4272-1.2623-1.0227-1.6896-1.7866-.4272-.7768-.6408-1.6766-.6408-2.6993 0-1.0228.2136-1.9161.6408-2.68.4273-.7768.9904-1.3723 1.6896-1.7866.712-.4272 1.4759-.6408 2.2915-.6408.6473 0 1.2234.1165 1.7284.3495.5049.233.9127.5697 1.2234 1.0098h.1554v-1.0486h2.4469v9.2244c0 1.0616-.2072 1.9808-.6215 2.7576s-1.0033 1.3723-1.7672 1.7866c-.7638.4273-1.6571.6409-2.6799.6409zm.0388-6.8164c.7121 0 1.3206-.246 1.8255-.7379.5049-.505.7574-1.1911.7574-2.0585 0-.8933-.2525-1.5795-.7574-2.0585-.492-.492-1.1005-.738-1.8255-.738s-1.3399.246-1.8449.738c-.5049.4919-.7573 1.1781-.7573 2.0585 0 .8803.2524 1.5665.7573 2.0585.505.4919 1.1199.7379 1.8449.7379z"/><path d="m82.0319 13.6802h2.3887v1.3205h.1553c.246-.4661.6279-.848 1.1458-1.1458.5178-.3107 1.0875-.466 1.7089-.466.4532 0 .8674.0712 1.2429.2136v2.544c-.3496-.1295-.6473-.2201-.8933-.2719-.2331-.0647-.4855-.0971-.7574-.0971-.7509 0-1.3464.2719-1.7866.8156-.4402.5438-.6603 1.23-.6603 2.0585v4.9327h-2.544z"/><path d="m92.8538 23.895c-1.0487 0-1.9097-.3042-2.5829-.9127-.6732-.6215-1.0098-1.4306-1.0098-2.4275 0-.6603.1748-1.2429.5243-1.7478.3496-.5049.8286-.8933 1.4371-1.1652s1.2817-.4078 2.0197-.4078c1.0227 0 1.8966.1489 2.6216.4467v-.4273c0-.5437-.2071-.9839-.6214-1.3205-.4013-.3366-.9451-.5049-1.6313-.5049-.466 0-.9192.11-1.3594.3301-.4272.2071-.7832.4855-1.068.835l-1.6313-1.2817c.479-.6214 1.081-1.1004 1.806-1.437s1.5148-.5049 2.3693-.5049c1.5147 0 2.6669.3495 3.4567 1.0486.7897.6991 1.1846 1.7219 1.1846 3.0684v6.0978h-2.5052v-1.0099h-.1553c-.2978.3884-.6927.7056-1.1846.9516-.4791.246-1.0358.369-1.6701.369zm.602-1.9808c.7379 0 1.3205-.2331 1.7478-.6991.4401-.4791.6602-1.0358.6602-1.6701-.6602-.3108-1.3529-.4661-2.0779-.4661-1.3205 0-1.9808.4919-1.9808 1.4759 0 .4013.1424.7315.4272.9904.2849.246.6927.369 1.2235.369z"/><path d="m99.9429 13.6802h2.3891v1.2428h.155c.311-.479.725-.8544 1.243-1.1263.531-.2848 1.12-.4272 1.767-.4272.699 0 1.308.1683 1.825.5049.518.3236.887.7379 1.107 1.2428.324-.5178.764-.9386 1.321-1.2623.57-.3236 1.236-.4854 2-.4854 1.127 0 1.981.3495 2.564 1.0486.595.6862.893 1.6183.893 2.7965v6.3697h-2.525v-5.9036c0-.6215-.149-1.1005-.446-1.4371-.285-.3366-.687-.5049-1.204-.5049-.661 0-1.191.2654-1.593.7962-.388.5178-.582 1.204-.582 2.0585v4.9909h-2.544v-5.9036c0-.6215-.156-1.1005-.466-1.4371-.298-.3366-.725-.5049-1.282-.5049-.622 0-1.127.2654-1.515.7962-.375.5178-.563 1.204-.563 2.0585v4.9909h-2.5441z"/></g></svg>